<?xml version="1.0" encoding="UTF-8"?>
<svg id="Layer_2" data-name="Layer 2" xmlns="http://www.w3.org/2000/svg" xmlns:xlink="http://www.w3.org/1999/xlink" viewBox="0 0 784.41 486.12">
  <defs>
    <style>
      .cls-1 {
        fill: none;
      }

      .cls-2 {
        clip-path: url(#clippath);
      }

      .cls-3 {
        fill: #f2ee4e;
      }

      .cls-4 {
        fill: #ffba00;
      }

      .cls-5 {
        fill: #ff9400;
      }

      .cls-6 {
        fill: #6b6b6b;
      }

      .cls-7 {
        fill: #666;
      }

      .cls-8 {
        fill: #c6ba80;
      }

      .cls-9 {
        fill: #3f1e07;
      }

      .cls-10 {
        fill: #3d932e;
      }

      .cls-11 {
        fill: #552906;
      }

      .cls-12 {
        fill: #64553a;
      }

      .cls-13 {
        fill: #35393e;
      }

      .cls-14 {
        fill: url(#radial-gradient-10);
      }

      .cls-15 {
        fill: url(#radial-gradient-11);
      }

      .cls-16 {
        fill: url(#radial-gradient-12);
      }

      .cls-17 {
        fill: url(#radial-gradient-6);
      }

      .cls-18 {
        fill: url(#radial-gradient-5);
      }

      .cls-19 {
        fill: url(#radial-gradient-3);
      }

      .cls-20 {
        fill: url(#radial-gradient-4);
      }

      .cls-21 {
        fill: url(#radial-gradient-9);
      }

      .cls-22 {
        fill: url(#radial-gradient-8);
      }

      .cls-23 {
        fill: url(#radial-gradient-7);
      }

      .cls-24 {
        fill: url(#radial-gradient-2);
      }

      .cls-25 {
        fill: url(#radial-gradient);
      }
    </style>
    <radialGradient id="radial-gradient" cx="345.31" cy="184.54" fx="345.31" fy="184.54" r="140.26" gradientUnits="userSpaceOnUse">
      <stop offset="0" stop-color="#fff500"/>
      <stop offset=".22" stop-color="#fd0"/>
      <stop offset=".48" stop-color="#ffc900"/>
      <stop offset=".74" stop-color="#ffbd00"/>
      <stop offset="1" stop-color="#ffba00"/>
    </radialGradient>
    <radialGradient id="radial-gradient-2" cx="466.91" cy="237.73" fx="466.91" fy="237.73" r="30.85" xlink:href="#radial-gradient"/>
    <radialGradient id="radial-gradient-3" cx="664.48" cy="220.73" fx="664.48" fy="220.73" r="110.43" gradientUnits="userSpaceOnUse">
      <stop offset=".03" stop-color="#ff9400"/>
      <stop offset=".3" stop-color="#fd9000"/>
      <stop offset=".51" stop-color="#f88701"/>
      <stop offset=".69" stop-color="#ef7703"/>
      <stop offset=".87" stop-color="#e26006"/>
      <stop offset="1" stop-color="#d6490a"/>
    </radialGradient>
    <radialGradient id="radial-gradient-4" cx="185.05" cy="207.96" fx="185.05" fy="207.96" r="62.72" xlink:href="#radial-gradient"/>
    <radialGradient id="radial-gradient-5" cx="555.07" cy="133.75" fx="555.07" fy="133.75" r="140.99" xlink:href="#radial-gradient"/>
    <clipPath id="clippath">
      <path class="cls-1" d="M247.79,74.86c2.01-4.62,8.61-17.97,22.7-31.75,16.02-15.66,45.3-35.12,93.84-38.89,88.63-6.89,123.45,59.11,134.31,87.8,7.39,19.53,9.96,49.56,7.05,61.3-13.8-10.72-59.01-43.1-123.92-62.32-65.71-19.45-118.44-17.36-133.99-16.14Zm5.9,51.32c.45-.37,.88-.77,1.29-1.2,5.69-5.95,6.96-17.19,7.21-20.34,.04-.52,.06-.83,.06-.85,.04-.93,.76-1.69,1.69-1.78,.02,0,.12-.01,.28-.02,.68-.06,2.57-.21,5.45-.38,4.89-.29,12.62-.63,22.04-.63,3.07,0,6.32,.04,9.71,.12,1.77,.04,3.57,.1,5.4,.17,18.79,.75,40.96,3.09,60.48,9.05,5.42,1.66,10.6,3.4,15.51,5.19,1.68,.61,3.32,1.22,4.93,1.84,32.4,12.4,52.07,26.04,52.3,26.21,.57,.4,.87,1.08,.78,1.77-.04,.27-2.1,16.32,1.61,31.61,.42,1.72,.91,3.44,1.48,5.12,3.02,8.82,8.35,16.73,17.63,20.29,5.55,2.13,10.88,1.94,15.84-.58,13.78-7,21.34-29.64,22.9-34.8-4.13-3.85-24.41-21.81-60.6-39.27-.84-.4-1.68-.81-2.53-1.21-2.45-1.15-4.99-2.32-7.65-3.49-6.43-2.84-13.47-5.7-21.1-8.49-3.35-1.23-6.82-2.44-10.41-3.63-38.32-12.73-89.73-22.93-153.47-20.57-3.68,7.55-10.9,25.8-6.8,34.02,1.14,2.28,3.08,3.63,5.94,4.13,3.97,.69,7.25-.06,10.02-2.3Z"/>
    </clipPath>
    <radialGradient id="radial-gradient-6" cx="294.06" cy="140.63" fx="294.06" fy="140.63" r="88.27" xlink:href="#radial-gradient-3"/>
    <radialGradient id="radial-gradient-7" cx="-16.39" cy="117.87" fx="-16.39" fy="117.87" r="300.39" gradientUnits="userSpaceOnUse">
      <stop offset="0" stop-color="#ebeced"/>
      <stop offset=".14" stop-color="#dfe0e2"/>
      <stop offset=".71" stop-color="#b0b5b9"/>
      <stop offset="1" stop-color="#9fa5aa"/>
    </radialGradient>
    <radialGradient id="radial-gradient-8" cx="323.67" cy="308.37" fx="323.67" fy="308.37" r="148.97" xlink:href="#radial-gradient-7"/>
    <radialGradient id="radial-gradient-9" cx="76.02" cy="82.33" fx="76.02" fy="82.33" r="313.92" xlink:href="#radial-gradient-7"/>
    <radialGradient id="radial-gradient-10" cx="-3103.36" cy="409.78" fx="-3103.36" fy="409.78" r=".7" gradientTransform="translate(-2443.34) rotate(-180) scale(1 -1)" xlink:href="#radial-gradient"/>
    <radialGradient id="radial-gradient-11" cx="-3100.82" cy="408.84" fx="-3100.82" fy="408.84" r=".88" gradientTransform="translate(-2443.34) rotate(-180) scale(1 -1)" xlink:href="#radial-gradient"/>
    <radialGradient id="radial-gradient-12" cx="720.36" cy="440.33" fx="720.36" fy="440.33" r=".65" xlink:href="#radial-gradient"/>
  </defs>
  <g id="Layer_1-2" data-name="Layer 1">
    <g>
      <g>
        <g>
          <path class="cls-25" d="M441.36,185.97l-3.94-15.2,.38-25.14-9.1-8.18-56.42-24.16-27.34-4.4c-2.16-.38-4.32-.72-6.48-1.04l-31.64-5.09-40.73,2.82-1.15,6.19-8.14,13.73-9.98,5.4-.23,1.53c-1.06,.01-2.15-.07-3.28-.25,.09,1.68,.03,3.37,.12,5.05,.06,1.19-1.23,2.1-2.34,1.78-6.95-2.03-14.96-1.14-19.24,5.49-1.19,1.84-2.22,4.55-.63,6.49,1.2,1.47,3.27,1.67,5.05,1.61,4.07-.15,7.45-1.73,11.57-.97,.5,.09,.61,.9,.15,1.12-2.73,1.23-5.48,2.74-8.34,3.59-8.23,10.63-15.25,21.75-16.46,35.56-.63,7.24,.3,14.48,2.73,21.33,1.16,3.29,2.71,6.79,4.81,9.6,1.07,1.43,2.37,2.62,3.34-.04,.54-1.47,.03-3.77-.1-5.33-.08-.98,1.27-1.18,1.73-.47,1.87,2.86,3,6.65,.71,9.59,8.14,13.07,18.56,23.75,31.51,32.21,12.72,8.3,26.74,14.71,40.94,20.01,15.58,5.8,31.82,10.13,48.35,12.07,15.9,1.86,32.1,1.6,47.85-1.4,7.76-1.47,15.43-3.55,22.84-6.28,7.27-2.67,13.94-6.5,21.05-9.46l16.31-70.34c-6.04-3.72-10.72-9.6-13.9-17.43Z"/>
          <path class="cls-24" d="M492.66,218.96c-.64-1.23-1.35-2.42-2.13-3.57-.04-.06-.08-.13-.12-.19-.56-.81-1.17-1.59-1.8-2.36-1.17-1.41-2.43-2.74-3.77-3.98-1.02-.94-2.09-1.8-3.2-2.63-.57-.43-1.35-.89-1.94-1.46-.21,.11-.42,.23-.63,.33-3.24,1.65-6.59,2.47-10.04,2.47-.03,0-.06,0-.09,0l-12.78,64.38c1.68-.55,3.06-1.18,4.66-2.15,6.34-3.84,10.63-10.36,12.98-17.26,1.45-4.26,2.25-8.71,2.66-13.19,.21-2.25,.37-4.51,.5-6.77,.09-1.44,.15-2.9,.34-4.34-.03-.05-.07-.1-.09-.16-.41-.96-.18-1.82,.59-2.34,.02-.05,.03-.11,.04-.16,.22-.76,1.2-.78,1.55-.16,.7,.12,1.41,.48,2.06,.65,.76,.21,1.53,.38,2.32,.48,1.72,.22,3.53,.18,5.24-.14,1.35-.25,2.4-.57,3.47-1.27,.75-.48,1.36-1.18,1.47-2.09,.17-1.41-.65-2.89-1.27-4.1Z"/>
        </g>
        <path class="cls-7" d="M458.66,205.2l-16.39,70.67,8.82-1.47c.12-.56,.5-1.07,.99-1.36,.02-.01,.04-.02,.06-.03l13.06-65.78c-1.65-.28-3.32-.74-5.01-1.39-.52-.2-1.03-.42-1.54-.65Z"/>
        <path class="cls-7" d="M243.81,86.64c39.66-1.51,77.95,1.63,113.82,9.35,17.9,3.85,35.23,8.85,51.81,14.92,7.48,2.74,14.81,5.71,21.97,8.89,2.52,1.12,5.03,2.26,7.51,3.43,40.26,19.03,61.89,39.11,64.5,41.61,2.25,.96,3.5,.93,3.91,.55,.9-.81,.57-3.91-.04-6.04-4.86-4.05-52.86-42.97-126.57-64.79-73.4-21.73-130.35-16.33-136.57-15.64-1.45,1.33-2.93,3.13-2.71,4.79,.2,1.46,1.68,2.51,2.36,2.92Z"/>
        <path class="cls-19" d="M740.93,207.25c-5.16-2.67-8.14,5.38-10.56,8.28-2.29,2.74-5.5,4.57-8.96,2.72-3.29-1.76-5.87-5.4-7.5-8.67-3.23-6.46-3.6-13.8-.68-20.22,.08-.61,.16-1.23,.28-1.84,.33-1.81,2.02-5.45,.53-7.04-1.38-1.48-3.36-.14-4.78,.82-.74,3.39-1.59,6.76-2.58,10.1-2.03,6.85-4.58,13.52-7.61,19.96,1.91,4.01,3.18,8.03,6.35,11.4,3.37,3.57,7.71,6.16,12.56,7.06,8.36,1.55,17.23-2.33,22.17-9.16,2.32-3.2,5.79-10.78,.77-13.38Z"/>
        <path class="cls-20" d="M224.06,228.46c-2.29,.97-4.84,.06-6.59-2.09-5.67-6.96-8.32-16.86-8.9-25.66-.2-3.07-.12-6.22,.23-9.36-4.76,1.1-9.84,1.44-14.57,2.31-5.65,1.05-11.28,2.18-16.85,3.59-11.36,2.86-22.21,6.92-33.12,11.12-5.35,2.06-10.81,3.76-16.56,4.12-2.48,.15-4.97,.02-7.41-.42-2.87-.51-5.4-1.82-8.18-2.61-2.81-.8-6.55-.93-6.84,2.9-.17,2.24,.62,4.77,1.37,6.84,1.8,4.98,5.21,8.71,7.96,13.11,.38,.61-.26,1.53-.98,1.27-3.65-1.31-6.97-4.56-9.33-8.49-.61,5.82,2.2,11.52,5.36,16.48,3.39,5.33,7.47,10.17,12.1,14.47,16.58,15.43,38.84,23.67,61.31,24.72,13.33,.62,26.66-1.05,39.59-4.24,12.01-2.97,23.23-7.71,34.74-12.03-2.69-1.72-5.32-3.53-7.88-5.46-10.61-7.98-20.5-18.04-25.43-30.56Z"/>
        <path class="cls-18" d="M703.11,184.78c-4.46,16.37-11.72,31.9-21.58,45.71-9.19,12.87-20.59,24.25-33.45,33.46-13.8,9.89-29.1,16.75-45.28,21.76-8.33,2.58-16.77,4.79-25.21,6.99,.54-.28,1.07-.55,1.6-.83,13.05-6.92,27.36-17.04,29.41-32.77,.1-.74-.73-1.46-1.43-1.43-.2,0-.4,.03-.6,.04,1.27-1.63,2.43-3.32,3.43-5.07,2.13-3.7,2.61-8.86-2.32-10.41-2.08-.65-4.29-.33-6.4-.11-3.36,.34-6.76,.28-10.1-.22-13.1-1.96-24.47-9.11-35.88-15.33-11.13-6.07-22.74-11-35.31-13.15-6.67-1.14-13.49-1.73-20.26-1.51-2.35,.08-4.75,.19-7.16,.42-1.26-1.62-2.65-3.13-4.19-4.46-1.38-1.2-2.85-2.31-4.39-3.3-.66-.43-1.35-.83-2.06-1.17,12.76-8.65,19.67-28.2,21.64-34.51,1.04,.32,2,.48,2.86,.48,1.36,0,2.49-.4,3.37-1.2,3.15-2.84,1.27-9.2,.86-10.45-.11-.32-.3-.61-.55-.83-.04-.04-.48-.41-1.28-1.06,4.04-12.39,.74-45.38-6.73-65.12-2.66-7.03-6.72-16.23-12.59-26.08,12.85-2.99,25.45-6.69,38.55-8.68,13.96-2.12,28.22-2.74,42.31-1.65,25.15,1.95,50.15,10.13,70.61,25.06,7.53,5.49,16.34,15.11,26.17,17.15-1.03,.32-2.08,.59-3.13,.81-1.03,.21-.64,1.55,.23,1.67,12.16,1.63,22.62-8.89,25.32-20.26,2.54,4.57,3.72,9.79,3.58,15.08-.06,2.27,2.73,3.16,4.27,1.77,5.27-4.75,8.71-11.07,10.02-17.88,4.59,13,5.95,27.14,4.27,40.8-.52,4.21-1.38,8.38-2.54,12.47-.29,.12-.53,.39-.56,.78-.04,.49-.08,.98-.11,1.47-.96,3.08-2.08,6.11-3.36,9.06-3.15,7.29-7.64,13.88-11.84,20.58-.39,.62,.45,1.17,.96,.74,5.74-4.93,10.39-11.34,13.97-18.39,0,4.53,0,9.06-.42,13.58-.8,8.77-2.42,17.5-4.73,25.99Zm-97.88,75.55c-.25-.03-.5-.07-.75-.11-1.49,1.67-3.08,3.24-4.73,4.66-3.73,3.21-8.28,6.82-13.23,7.67-1.03,.18-2.06-1.09-1.12-1.93,4.06-3.63,8.94-6.1,12.91-9.92,2.09-2.01,4.02-4.18,5.73-6.52,1.4-1.92,5.56-6.94,1.68-8.1-1.88-.56-4.77,.4-6.66,.52-2.82,.18-5.64,.03-8.43-.34-5.3-.69-10.44-2.19-15.37-4.23-10.38-4.28-19.73-10.53-29.69-15.63-9.86-5.05-20.5-8.43-31.45-10.12-5.65-.87-11.39-1.22-17.1-1.19-.8,0-1.6,.03-2.4,.06,.06,.1,.13,.2,.2,.3,1.92,3.03,4.07,6.87,2.13,10.41-1.65,3.02-5.33,4.18-8.51,4.6-1.92,.25-3.83,.17-5.74-.12-.83-.13-1.65-.31-2.46-.55,.09,1.22,.12,2.44,.14,3.64,.05,2.54-.05,5.07-.29,7.61-.47,5.17-1.39,10.38-3.34,15.22-2.88,7.15-7.87,13.67-14.68,17.46-1.63,.91-3.39,1.69-5.19,2.19-.52,.15-1.05,.27-1.58,.37-.16,.74-.76,1.31-1.51,1.44l-13.64,2.27c-.1,.02-.2,.03-.31,.03-.51,0-1-.21-1.36-.59-.17-.18-.29-.4-.38-.63-6.26,4.4-13.84,7.4-20.89,9.97-3.6,1.31-7.26,2.45-10.96,3.44,13.79,6.23,28.29,10.76,43.16,13.58,28.96,5.51,59.21,4.43,87.71-3.05,14.16-3.72,27.95-8.88,40.89-15.76,11.45-6.08,22.49-14.21,27.21-26.66Z"/>
        <g class="cls-2">
          <g>
            <rect class="cls-12" x="191.78" y="-63.43" width="371.84" height="275.11"/>
            <path class="cls-10" d="M176.02,59.99c17.55,1.98,32.08,7.75,45.57,19.31,6.36,5.46,26.73,28.8,35.87,19.2,2.96-3.11,1.46-9.22,6.5-10.63,5.01-1.41,13,3.58,17.77,4.51s14.93,2.49,19.35,.63c3.61-1.52,3.93-5.46,7.42-7.74,8.01-5.24,18.05,3.38,26.65,1.06,14.34-3.87,6.2-19.93,14.88-27.57,3.44-3.03,12.16-1.88,16.41-1.59,11.17,.78,21.21,5.09,31.95,7.63,15.04,3.56,31.29,4.7,46.7,4.25,7.43-.22,19.89,.65,22.25-7.76,3.17-11.26-10.37-21.05-8.58-31.96,1.02-6.23,8.83-8.35,14.94-9.31,12.29-1.93,25.29,.64,37.64,.7,20.83,.11,42.05,.55,60.75,9.98,4.87,2.46,12.22,6.4,10.59,13.27-1.16,4.89-10.62,5.14-15.06,6.62-7.82,2.61-22.48,5.21-28.24,11.1-7.58,7.75,1.94,11.69,4.55,18.26,5.47,13.81-23.49,10.65-26.44,19.53-3.17,9.54,22.51,19.35-.9,24.17-16.88,3.48-36.78,2.38-53.65,.54-13.96-1.53-27.38-6.22-41.36-7.45-4.18-.37-18.3-3.57-20.86,2.76-2.89,7.16,9.6,7.04,12.32,11.6,7.03,11.79-31.05,6.87-36.5,11.41,4.94,10.64-.18,13.1-11.61,13.57-11.07,.46-22.07-.03-33.07-1.1-5.76-.56-14.96-2.05-20.43,.7-1.1,8.92,2.25,8.72-8.65,12.54-13.36,4.67-25.58,7.86-36.3,16.92-1.91,1.62-.67,1.71-3.98,2.82-5.24,1.75-16.3-.37-20.81-2.01-7.24-2.62-10.83-7.98-15.85-13.44-5.65-6.14-10.83-9.58-18.49-12.63-12.47-4.97-24.74-8.81-37.68-12.23-10.36-2.74-10.52-5.66-7.83-15.8,5.7-21.43,11.5-42.74,14.21-71.89Z"/>
            <path class="cls-8" d="M338.65-77.63c-14.66,13.36-31.32,24.01-46.05,37.21-10.34,9.26-21.1,17.99-31.55,27.13-2.71,2.37-8.12,5.89-8.3,9.88-.5,11.43,30.89,1.67,37.72,.81,4.38-.56,12.69-2.02,15.97,2.37,3.91,5.23-1.98,11.03-4.72,15.24-3.52,5.41-11.33,12.67-3.51,15.48,5.62,2.02,12.99-1.5,9.96,7.05-1.63,4.58-8.66,8.43-8.74,13.81-.06,4.42,4.42,6.3,3.29,11.33-1.69,7.5-13.02,10.39-14.89,17.77-1.89,7.49,3.13,3.66,7.82,.8,10.26-6.26,16.55-13.32,23.15-23.45,5.3-8.15,9.09-17.67,17.56-22.99,2.46-1.54,7.3-4.51,10.54-4.09,4.87,.64,4.11,3.41,7.3,6.17,3.71,3.21,8.26,4.56,12.85,6.03,1.55-4.2,.81-8.91,2.5-13.12,8.5,2.79,22.78,11.73,31.79,7.35,5.9-2.87,4.92-8.96,1.9-14.13-4-6.84-11.1-7.29-17.92-9.96-6.46-2.52-32.19-15.27-27.77-24.84,5.64-12.22,36.91,2.81,46.62-.6,13.93-4.89-.85-23.27-8.34-28.1-4.16-2.68-12.36-4.43-12.97-10.33-.59-5.69,6.5-9.44,8.03-14.4,3.6-11.66-7.24-18.18-16.58-20.05-11.07-2.22-19.95,1.54-35.64,7.64Z"/>
            <path class="cls-8" d="M157.25,111.74c6.2,3.16,14.25,1.72,20.89,1.7,13.3-.03,26.67-.39,39.95,.08,12.63,.45,30.1,1.37,31.37,17.23,.3,3.72-2.37,9.25,.17,12.25,3.59,4.23,13.73,1.02,17.64-.15,10.32-3.1,15.21-10.01,22.95-2.22,6.77,6.81,10.19,3.57,18.37,5.22,1.95,.39,4.95,3.13,6.92,3.99,5.05,2.21,10.61,3.21,15.21,6.53,6.87,4.96,2.96,8.07-4.46,10.15-6.9,1.94-26.54,9.54-10.07,13.89,12.92,3.41,31.42,.46,41.31,10.23,4.29,4.24,6.48,8.04,11.98,10.95,3.91,2.07,16.36,4.94,18.46,9.05,4.92,9.65-19.54,8.13-24.27,8.1-14.42-.09-28.88-2.47-43.15-4.33-13.98-1.83-24.35-6.24-37.28-10.78-13.73-4.82-35.29,2.14-47.65,9.17-4.51,2.57-10.11,8.29-15.34,8.95-4.04,.51-7.79-1.95-11.78-2.49-8.33-1.11-20.47,2.91-27.39-3.43-6.38-5.84-2.61-13.32,.08-19.81,6.88-16.57-6.94-19.36-11.66-32.85-3.33-9.52,4.71-19.6,5.24-29.42,.33-6.07-1.66-8.31-3.19-13.58-1.17-4.01,.26-6.12,1.62-10.16"/>
            <path class="cls-8" d="M470.01-80.47c-4.66,5.69-16.9,15.56-14.35,23.89,1.96,6.4,12.87,8.21,18.33,10.28,8.55,3.25,17.08,6.55,25.65,9.76,13.05,4.89,11.87,10.19,4.51,20.3-8.31,11.4,2.19,10.65,9.24,18.3,3.4,3.69,5.85,11.4,6.71,16.25,1.82,10.26-11.08,13.26-18.81,17.16-6.97,3.51-48.95,20.98-45.39,31.14,1.59,4.55,28.11,.21,31.79,0,6.6-.37,17.17-2.41,23,1.93-3.3,9.88-21.33,12.1-27.22,21.16-7.39,11.38,18.71,9.74,24.27,13.83,7.7,5.67-.46,9.58,1.94,17.15,2.06,6.51,11.32,9.31,10.41,17.41-1.03,9.14-15.04,11.44-17.24,20.07-2.88,11.29,12.8,17.68,21.46,17.75,13.16,.11,30.31-2.86,38.78-14.12,6.5-8.64,1.26-17-6.43-22.7-5.7-4.22-16.84-9-14.49-18.37,1.66-6.62,13.04-8.24,11.19-15.89-1.48-6.14-13.09-9.39-16.97-14.25-2.95-3.71-3.75-8.35-4.98-12.79-1.58-5.73-4.36-11.41-5.68-17.15-1.96-8.5,1.44-10.77,7.38-16.05,3.59-3.19,6.98-6.64,10.49-9.92,6.04-5.66,15.67-11.4,20.25-18.23,3.08-4.59,4.7-14.58,4.78-20.14,.11-7.16-8.79-8.44-6.58-14.47,2.29-6.26,13.35-10.04,17.73-15.37,3.98-4.85,6.17-11.66,5.76-17.99-.75-11.7-11.66-22.86-21.29-28.29-25.36-14.31-54.16-14.36-81.17-5.78"/>
            <path class="cls-10" d="M579.2,181.11c-11.37-10.42-23.18-17.66-38.02-21.85-19.58-5.53-41.97-11.17-62.55-10.01-6.09,.34-16.55,.44-17.61,7.82-.98,6.83,6.06,10.32,9.75,14.31-2.04,2.54-4.68,4.71-6.95,6.95,1.71,3.01,4.67,5.03,7.51,6.78-5.57,5.67-10.7,6.66-17.82,6.76-5.32,.07-22.04-1.74-26.05,2.34-11.78,12.01,16.56,12.63,20.91,14.5,12.9,5.54,16.28,17.6,32.01,19.29,22.44,2.41,45.04-3.01,67.55-.6,13.57,1.45,35.91,11.72,44.92-3.6,4.82-8.19,6.89-22.74,.86-30.47-2.87-3.68-7.63-5.96-14.5-12.21Z"/>
            <path class="cls-13" d="M171.47,57.71c.74,9.71,42.46,3.22,47.74,3.48,9.88,.47,7.11,5.45,13.1,10.67,3.11,2.71,9.17,5.71,12.91,7.54,7.97,3.93,16.4,.35,24.62,3.25,5.1,1.8,5.26,5.54,9.12,8.35,5.62,4.09,16.37,4.81,23.16,7.79,11.78,5.17,22.39,4.58,34.68,6.95,6.84,1.31,18,4.14,21.27,11.22,4.65,10.07-1.63,22.55,11.05,28.94,7.48,3.77,16.87,1.51,24.74,5.59,6.17,3.19,14.49,6.02,19.53,10.65,6.6,6.05,12.15,12.21,19.33,17.96,3.98,3.18,6.22,4.95,5.53,10.11,.48-.53,1.06-.95,1.56-1.74-12.08-4.55-28.25,1.67-41.23-3.16-13.63-5.07-21.94-19.7-31.41-29.78-11.48-12.21-23-16.51-39.2-18.66-7.45-.99-19.11-1.57-25.73-5.89-1.13-.74-1.35-2.67-2.71-3.4-5.71-3.04-13,1.44-18.03,3.58-9.32,3.97-18.6,8.57-27.66,13.15-4.84,2.44-11.73,8.15-17.45,7.93-14.41-.54-11.12-25.86-10.6-35.12,.62-11.04-6.8-18.91-18.08-16.73-7.67,1.48-14.33,10.73-23.18,8.46-9.3-2.38-10.62-13.22-11.9-21.02-1-6.07-.84-9.05,.57-15.06,.71-3.05,2.09-5.56-1.74-15.05Z"/>
            <path class="cls-13" d="M446.13-77.63c-6.05,21.17-16.64,41.68-5.43,63.33,6.79,13.11,22.6,19.21,34.74,26.48,5.77,3.46,17.04,9.85,17.61,17.56,.72,9.72-13.9,16.76-20.33,20.28-10.27,5.62-22.3,10-31.45,17.46-2.61,2.13-8.34,6.53-8.4,10.59-.12,7.7,8.98,3.38,11.88,8.18,5.42,8.98-22,13.14-27.76,16.17-15.42,8.11-5.67,13.68,6.28,15.9,13.56,2.51,11.11,8.31,8.06,20.64-2.54,10.29-1.86,16.09,8.24,19.44,7.67,2.55,26.21,5.11,29.68-5.45,3.35-10.2-13.56-16.25-18.14-22.14-11.54-14.84,12.14-18.82,21.3-22.41,3.95-1.54,9.61-3.17,10.97-7.81,2.13-7.27-7.17-11.13-11.53-15.26-9.4-8.91-9.21-13,3.8-15.72,14.62-3.07,35.43-7.31,42.6-22.65,2.14-4.59,2.81-10.67,1.18-15.54-2.06-6.13-8.06-8.36-10.79-13.33-5.37-9.8,8.86-14.07,5.61-24-4.14-12.65-20.95-16.28-30.58-22.58-11.48-7.51-3.01-19.18-3.87-30.36-1.29-16.7-9.03-24.56-25.13-22.23"/>
          </g>
        </g>
        <path class="cls-5" d="M442.97,189.49s-.69,66.3-30.12,82.46c-29.43,16.16-62.92,17.87-99.7,8.92-36.78-8.96-65.35-29.57-65.35-29.57,0,0,41.37,40.41,106.62,41.38l49.9-.64s37.96,22.51,95.96,19.1,77.31-18.46,77.31-18.46c0,0,40.61-4.9,68.55-24.62s43.47-39.71,43.47-39.71c0,0-46.03,39.71-63.94,40.98s-18.34-20.9-18.34-20.9c0,0-37.96,39-78.47,44.23s-55.99-14.38-53.8-24.19c2.19-9.81,2.62-20.05,2.62-20.05,0,0-7.44,16.63-12.46,20.47-5.02,3.84-9.06,3.03-9.06,3.03l-5.05,2.45-12.67,1.47,17.72-74.25-13.19-12.13Z"/>
        <path class="cls-5" d="M456.15,271.96l11-66.76,14.81-1.81s17.04,14.5,13.34,19.34c-3.7,4.83-15.07,5.69-15.07,5.69,0,0-4,30.27-12.52,37.88-8.52,7.61-11.56,5.67-11.56,5.67Z"/>
        <path class="cls-5" d="M104.2,223.58s29.15,48.34,83.46,44.07c54.31-4.26,42.88-34.9,42.88-34.9l17.25,21.25,14.35,11.66s-62.01,30.25-92.69,16.49l-37.87-12.55-25.99-26.64-3.24-13.12,1.84-6.26Z"/>
        <path class="cls-5" d="M500.99,87.67s24.74,34.97,20.76,67.39c-3.98,32.41-18.94,40.37-14.87,48.33,4.07,7.96,10.32,11.7,10.32,11.7l-17.44-3.19-7.53,1.97-10.27-10.48,13.86-20.19,6.24-16.21,5.82,.57,3.65-5.9-3.65-4.42,1.34-22.09-7.16-36.96-1.08-10.52Z"/>
        <path class="cls-3" d="M231.09,153.32s-12.51,23.58-11.37,44.08l5.65-8.78s-1.86,24.79,11.14,45.78c13,20.99,16.29,23.65,16.29,23.65l-18.57-16.26-10.52-15.33-5.69-1.73-9.52-25.46,4.5-20.32,9-14.5,9.1-11.14Z"/>
        <path class="cls-5" d="M264.94,111.77s53.16-2.47,94.38,7.19c41.23,9.67,78.31,37.47,78.31,37.47l.16-10.81-37.37-23.08-52.67-16.92-43.63-2.68-39.2,1.76v7.07Z"/>
        <path class="cls-11" d="M308.9,197.1c-3.17,4.04-6.62,7.64-8.88,12.45-2.26,4.8-3.48,9.99-3.67,15.25,5.46-2.53,11.39-3.91,16.71-6.75,5.83-3.1,11.87-10.03,8.33-17.06-.01-.02-.02-.05-.03-.07-3.14-.16-6.32-1.1-9.1-2.24-1.15-.47-2.26-1.01-3.35-1.58Z"/>
        <path class="cls-17" d="M313.55,157.6c-14.3-5.49-29.91-2.49-41.79,6.49,9.21,2.66,16.83,8.97,23.99,15.46,4.86,4.41,9.7,8.81,15.37,12.18,5.18,3.08,10.54,4.03,16.17,5.49-.02-.61-.02-1.23-.01-1.88,0-.38,.54-.67,.81-.34,1.25,1.57,1.97,2.87,2.32,4.88,.28,1.63,.78,3.4-.69,4.52-.26,.19-.72,.17-.98,0-1.33-.88-1.08-2.4-1.23-3.82-.02-.19-.03-.38-.05-.57-.78,.31-1.58,.54-2.4,.69,3.18,6.42,.08,13.71-5.42,18.11-7.11,5.69-16.5,6.71-24.29,11.1-1.38,.77-3.03-.21-3.08-1.77-.2-6.96,1.28-13.79,4.35-20.04,2.19-4.45,5.41-9.44,9.65-12.5-.63-.39-1.26-.79-1.87-1.2-7.89,3.02-13.11,10.61-15.25,18.66-2.25,8.45-1.82,17.33-1.98,26.06,10.96-8.6,26.84-6.48,39.33-12.65,3.67-1.81,7.05-4.33,9.14-7.91,2.21-3.78,2.69-8.26,2.76-12.56,.11-6.93-.08-13.89-.47-20.82-3.17-12.31-12.5-23.04-24.36-27.59Z"/>
        <g>
          <path class="cls-9" d="M409.84,183.26c-.72-2.94-.9-5.86-2.07-8.68-1.05-2.51-2.42-4.87-4.05-7.04-3.5-4.67-8.19-8.4-13.51-10.78-11.78-5.27-25.71-4.01-36.62,2.77-4.26,2.65-.31,9.45,3.94,6.74,8.88-5.67,20.07-6.88,29.91-2.92,4.47,1.8,8.49,4.68,11.92,8.03,3.33,3.25,7.47,7.83,8.89,12.32,.32,1.01,1.85,.6,1.6-.44Z"/>
          <path class="cls-9" d="M292.61,137.13c-3.15-3.68-6.98-6.8-11.43-8.75-8.3-3.63-17.59-2.79-24.17,3.61-.4,.39,.12,1.1,.61,.79,6.78-4.32,16.24-2.61,22.53,1.78,3.17,2.21,5.97,5.15,8.23,8.27,2.28,3.14,3.69,7.93,6.93,10.08,2.11,1.4,4.75-.47,4.82-2.77,.08-2.6-1.59-4.75-2.95-6.87-1.39-2.14-2.91-4.2-4.57-6.14Z"/>
        </g>
        <path d="M748.06,208.08c-1.61-4.3-5.75-7.12-10.37-6.34-5.09,.87-8.33,5.28-10.28,9.7-.72,1.63-1.1,3.51-3.07,3.62-1.73,.09-2.93-1.46-3.95-2.71-1.83-2.25-3.12-4.9-3.97-7.66-1.67-5.47-1.42-11.81,.45-17.2,.09-.25,.09-.47,.02-.67,.78-2.46,1.54-4.98,.78-7.56-1.07-3.65-4.28-4.24-7.34-3.46,.81-4.56,1.4-9.15,1.76-13.77,.62-7.87,1.08-16.68-.34-24.75,2.34-6.15,3.95-12.53,4.85-18.64,2.63-17.79-.91-35.64-9-51.59-.95-1.88-4.11-1.01-3.99,1.08,.4,7.16-1.8,14.04-5.98,19.68-1.1-6.02-3.87-11.55-8-16.28-1.21-1.38-3.63-.27-3.59,1.49,.23,9.34-5.19,16.6-12.69,20.83-5.48-1.34-10.53-3.91-15.01-7.4-4.94-3.84-9.58-8.04-14.64-11.72-10.23-7.44-21.63-13.2-33.55-17.42-25.2-8.92-52.35-10.35-78.66-6.42-14.56,2.17-29.71,5.58-43.15,11.79C469.21,31.62,432.03-4.76,364.05,.51c-49.76,3.86-79.84,23.93-96.3,40.08-17.56,17.23-23.67,33.38-24.13,34.65-.3,.03-.47,.05-.5,.06-.36,.05-.7,.2-.98,.44-3.29,2.85-4.76,5.71-4.37,8.51,.33,2.35,1.92,3.99,3.19,4.95-2.76,5.79-11.79,26.33-6.55,36.82,1.36,2.72,3.53,4.58,6.45,5.56-.25,1-.44,2.02-.63,3.04-8.54-3-19.81,1.7-23.19,10.1-1.85,4.6-.42,9.74,4.47,11.57,1.56,.58,3.07,.77,4.55,.7-8.94,7.72-14.76,19.27-16.8,31.09-4.05-.29-8.28,.26-12.23,.7-4.97,.56-9.9,1.31-14.8,2.31-10.52,2.13-20.86,5.07-30.9,8.89-9.66,3.67-20.21,9.19-30.87,7.22-4.31-.8-8.32-3.4-12.83-2.69-3.58,.56-6.19,2.99-6.76,6.61-.46,2.97,.08,6.39,1.33,9.68-5.27,10.61,3.6,23.56,10.09,31.62,7.33,9.1,16.75,16.36,27.11,21.72,23.36,12.07,50.13,13.96,75.7,9.12,15.87-3,32.49-8,46.64-15.92,.04-.02,.08-.06,.12-.08,8.99,5.31,18.53,9.71,28.19,13.65,31.55,12.88,66,19.57,99.99,14.64,2.83-.41,5.65-.91,8.45-1.49,.22,.42,.59,.79,1.15,1.06,46.65,22.21,101.69,25.43,150.57,9.14,7.11-1.01,14.11-3.17,21.04-4.88,9.38-2.31,18.78-4.47,28.06-7.15,17.03-4.91,33.49-11.49,48.3-21.33,20.73-13.77,37.75-32.77,49.11-54.8,1.4,6.71,7.44,13.1,12.78,16.18,8.16,4.7,18.13,4.26,26.25-.32,7.66-4.32,15.8-14.56,12.3-23.87ZM270.35,43.25c16.03-15.72,45.34-35.25,93.99-39.03,88.63-6.88,123.45,59.11,134.31,87.8,7.39,19.53,9.96,49.56,7.05,61.3-13.8-10.72-59.01-43.1-123.92-62.32-65.71-19.45-118.44-17.36-133.99-16.14,2-4.6,8.53-17.84,22.56-31.61Zm-26.2,35.67c6.22-.68,63.17-6.09,136.57,15.64,73.71,21.82,121.71,60.74,126.57,64.79,.6,2.13,.93,5.23,.04,6.04-.42,.37-1.67,.4-3.91-.55-2.61-2.5-24.25-22.58-64.51-41.61-25.1-11.86-52.45-21.03-81.29-27.24-35.87-7.72-74.17-10.87-113.83-9.35-.68-.41-2.15-1.45-2.36-2.91-.23-1.66,1.25-3.47,2.71-4.81Zm-6.42,45.43c-4.11-8.22,3.11-26.48,6.8-34.02,88.85-3.29,153.76,17.83,192.62,36.18,37.78,17.83,58.9,36.54,63.13,40.48-1.56,5.15-9.1,27.78-22.9,34.8-4.96,2.52-10.29,2.72-15.84,.58-26.72-10.28-20.78-56.56-20.72-57.02,.09-.69-.21-1.37-.78-1.77-.28-.2-28.33-19.66-72.74-33.24-25.08-7.67-54.55-9.35-75.59-9.35-16.28,0-27.52,1.01-27.77,1.03-.93,.09-1.65,.85-1.69,1.78,0,.16-.72,16.05-8.55,22.38-2.77,2.24-6.05,2.99-10.02,2.3-2.86-.5-4.8-1.85-5.94-4.13Zm243.9,81.87c1.11,.83,2.18,1.69,3.2,2.63,1.34,1.24,2.6,2.57,3.77,3.98-2.83,.48-5.6,1.2-8.19,2.32-.33,.14-.14,.62,.17,.63,3.32,.09,6.63-.18,9.94-.41,.78,1.15,1.49,2.34,2.13,3.57,.62,1.21,1.45,2.69,1.27,4.1-.11,.91-.72,1.6-1.47,2.09-1.07,.7-2.12,1.02-3.47,1.27-1.71,.32-3.51,.36-5.24,.14-.78-.1-1.56-.27-2.32-.48-.64-.18-1.36-.53-2.06-.65-.35-.62-1.33-.59-1.55,.16-.02,.05-.03,.11-.04,.16-.78,.52-1.01,1.38-.59,2.34,.03,.06,.06,.11,.09,.16-.19,1.44-.25,2.9-.34,4.34-.14,2.26-.3,4.52-.5,6.77-.41,4.47-1.21,8.93-2.66,13.19-2.35,6.9-6.64,13.42-12.98,17.26-1.6,.97-2.98,1.6-4.66,2.15l12.78-64.38s.06,0,.09,0c3.45,0,6.8-.82,10.04-2.47,.21-.11,.42-.22,.63-.33,.59,.57,1.37,1.03,1.94,1.46Zm-21.44-.39c1.69,.65,3.36,1.11,5.01,1.39l-13.06,65.78s-.04,.02-.06,.03c-.49,.29-.86,.8-.99,1.36l-8.82,1.47,16.39-70.67c.5,.23,1.01,.45,1.54,.65Zm-237.57,70.66c-12.93,3.19-26.26,4.86-39.59,4.24-22.46-1.04-44.73-9.29-61.31-24.72-4.62-4.3-8.7-9.14-12.1-14.47-3.16-4.96-5.97-10.66-5.36-16.48,2.36,3.93,5.68,7.18,9.33,8.49,.72,.26,1.36-.66,.98-1.27-2.75-4.4-6.16-8.12-7.96-13.11-.75-2.08-1.54-4.6-1.37-6.84,.29-3.83,4.03-3.7,6.84-2.9,2.78,.79,5.31,2.1,8.18,2.61,2.44,.44,4.94,.57,7.41,.42,5.76-.35,11.21-2.06,16.56-4.12,10.91-4.2,21.76-8.26,33.12-11.12,5.57-1.4,11.2-2.54,16.85-3.59,4.74-.88,9.82-1.21,14.57-2.31-.35,3.15-.44,6.29-.23,9.36,.59,8.79,3.23,18.69,8.9,25.66,1.75,2.15,4.31,3.06,6.59,2.09,4.93,12.52,14.82,22.57,25.43,30.56,2.56,1.92,5.19,3.73,7.88,5.46-11.51,4.32-22.73,9.06-34.74,12.03Zm124.58,14.37c-16.53-1.93-32.77-6.26-48.35-12.07-14.2-5.29-28.22-11.7-40.94-20.01-12.96-8.46-23.37-19.15-31.51-32.21,2.29-2.94,1.16-6.74-.71-9.59-.47-.71-1.81-.51-1.73,.47,.13,1.55,.63,3.86,.1,5.33-.97,2.65-2.27,1.47-3.34,.04-2.1-2.81-3.65-6.31-4.81-9.6-2.43-6.85-3.36-14.09-2.73-21.33,1.21-13.81,8.23-24.92,16.46-35.56,2.85-.85,5.61-2.36,8.34-3.59,.47-.21,.35-1.02-.15-1.12-4.12-.77-7.5,.82-11.57,.97-1.77,.06-3.84-.14-5.05-1.61-1.59-1.93-.56-4.64,.63-6.49,4.29-6.63,12.3-7.53,19.24-5.49,1.11,.32,2.4-.59,2.34-1.78-.09-1.68-.03-3.37-.12-5.05,4.91,.79,9.2-.26,12.74-3.12,7.59-6.14,9.4-18.9,9.81-23.47,9.56-.72,60.64-3.84,100.36,8.3,39.37,12.04,65.66,28.72,70.78,32.11-.36,3.37-1.19,13.52,.42,24.76,2.24,15.65,8.37,26.8,17.85,32.63l-16.31,70.33c-7.11,2.96-13.78,6.79-21.05,9.46-7.41,2.72-15.08,4.8-22.84,6.28-15.75,2.99-31.95,3.26-47.85,1.4Zm102.2,14.93c-14.87-2.83-29.37-7.35-43.16-13.58,3.7-.99,7.36-2.13,10.96-3.44,7.05-2.57,14.63-5.57,20.89-9.97,.09,.23,.2,.45,.38,.63,.35,.38,.85,.59,1.36,.59,.1,0,.2,0,.31-.03l13.64-2.27c.75-.13,1.35-.7,1.51-1.44,.53-.11,1.06-.23,1.58-.37,1.8-.51,3.55-1.29,5.19-2.19,6.81-3.79,11.8-10.32,14.68-17.46,1.95-4.84,2.87-10.04,3.34-15.22,.23-2.53,.33-5.06,.29-7.61-.02-1.2-.05-2.43-.14-3.64,.81,.23,1.63,.42,2.46,.54,1.91,.29,3.82,.37,5.74,.12,3.18-.41,6.86-1.58,8.51-4.6,1.93-3.54-.21-7.38-2.13-10.41-.06-.1-.13-.2-.2-.3,.8-.03,1.6-.06,2.4-.06,5.72-.03,11.45,.32,17.1,1.19,10.95,1.69,21.58,5.07,31.45,10.12,9.96,5.1,19.31,11.35,29.69,15.63,4.93,2.03,10.07,3.54,15.37,4.23,2.8,.36,5.61,.52,8.43,.34,1.9-.12,4.78-1.08,6.66-.52,3.88,1.16-.28,6.18-1.68,8.1-1.71,2.34-3.64,4.51-5.73,6.52-3.97,3.82-8.85,6.3-12.91,9.92-.94,.84,.09,2.11,1.12,1.93,4.95-.86,9.5-4.46,13.23-7.67,1.65-1.43,3.24-2.99,4.73-4.66,.25,.04,.5,.08,.75,.11-4.72,12.44-15.76,20.57-27.21,26.66-12.94,6.87-26.73,12.04-40.89,15.76-28.51,7.48-58.75,8.56-87.71,3.05Zm198.67-41.85c-13.8,9.89-29.1,16.75-45.28,21.76-8.33,2.58-16.77,4.79-25.21,6.99,.54-.28,1.07-.55,1.6-.83,13.05-6.92,27.36-17.04,29.41-32.77,.1-.74-.73-1.46-1.43-1.43-.2,0-.4,.03-.6,.04,1.27-1.63,2.43-3.32,3.43-5.07,2.13-3.7,2.61-8.86-2.31-10.41-2.08-.65-4.29-.33-6.4-.11-3.36,.34-6.76,.28-10.1-.22-13.1-1.96-24.47-9.11-35.88-15.33-11.13-6.07-22.74-11-35.31-13.15-6.67-1.14-13.49-1.73-20.26-1.51-2.35,.08-4.75,.19-7.16,.42-1.26-1.62-2.65-3.13-4.19-4.46-1.38-1.2-2.85-2.31-4.39-3.3-.66-.43-1.35-.83-2.06-1.17,12.76-8.65,19.68-28.2,21.64-34.51,1.04,.32,2,.48,2.86,.48,1.36,0,2.49-.4,3.37-1.2,3.15-2.84,1.27-9.2,.86-10.45-.11-.32-.3-.61-.55-.83-.04-.04-.48-.41-1.28-1.06,4.04-12.39,.74-45.38-6.73-65.12-2.66-7.03-6.72-16.23-12.6-26.08,12.85-2.99,25.45-6.69,38.55-8.68,13.96-2.12,28.22-2.74,42.31-1.65,25.15,1.95,50.15,10.13,70.61,25.06,7.53,5.49,16.34,15.11,26.17,17.15-1.03,.32-2.08,.59-3.13,.81-1.03,.21-.64,1.55,.23,1.67,12.15,1.63,22.62-8.89,25.32-20.26,2.54,4.57,3.72,9.79,3.58,15.08-.06,2.27,2.73,3.16,4.27,1.77,5.27-4.75,8.71-11.07,10.02-17.88,4.59,13,5.95,27.14,4.27,40.8-.52,4.21-1.38,8.38-2.54,12.47-.29,.12-.53,.39-.56,.78-.04,.49-.08,.98-.11,1.47-.96,3.08-2.08,6.11-3.36,9.06-3.15,7.29-7.64,13.88-11.84,20.58-.39,.62,.45,1.17,.96,.74,5.74-4.93,10.39-11.34,13.97-18.39,0,4.53,0,9.06-.42,13.58-.8,8.77-2.42,17.5-4.73,25.99-4.46,16.37-11.72,31.9-21.58,45.71-9.19,12.87-20.59,24.25-33.45,33.46Zm92.08-43.31c-4.95,6.84-13.81,10.72-22.17,9.16-4.85-.9-9.2-3.49-12.56-7.06-3.17-3.37-4.44-7.39-6.35-11.4,3.03-6.44,5.58-13.1,7.61-19.96,.99-3.34,1.84-6.7,2.58-10.1,1.41-.95,3.4-2.3,4.78-.82,1.49,1.6-.2,5.23-.53,7.04-.11,.62-.2,1.23-.28,1.84-2.92,6.42-2.55,13.76,.68,20.22,1.63,3.26,4.2,6.91,7.5,8.67,3.46,1.85,6.67,.03,8.96-2.72,2.42-2.9,5.4-10.95,10.56-8.28,5.03,2.6,1.55,10.18-.77,13.38Z"/>
        <g>
          <polygon class="cls-6" points="205.37 301.92 216.68 297.03 205.22 294.88 205.37 301.92"/>
          <polygon class="cls-6" points="224.06 310.8 214.85 308.8 205.62 313.28 205.63 313.65 214.64 315.42 224.06 310.8"/>
          <path class="cls-23" d="M195.32,323.13l-4.16-145.99c-.14-4.99-4-9.03-8.97-9.41L13.31,155.26c-3.05-.23-4.73,.27-6.47,1.97l-2.94,7.25,5.2,136.92h0c.18,4.86,3.81,8.93,8.62,9.66l162.41,24.83,8.93-3.4c3.86-1.47,6.37-5.23,6.25-9.35Z"/>
          <polygon class="cls-6" points="242.38 301.74 230 299.82 225.92 301.96 236.72 304.2 242.38 301.74"/>
          <path class="cls-22" d="M223.34,294.5c.8,.15,1.41,.81,1.51,1.62,.09,.81-.36,1.59-1.11,1.91l-18.28,7.9,.07,3.26,8.27-4.01c.37-.18,.8-.23,1.21-.14l15.07,3.27c.77,.17,1.36,.81,1.45,1.59,.1,.79-.32,1.55-1.03,1.89l-14.78,7.25c-.26,.13-.54,.19-.82,.19-.12,0-.24-.01-.36-.04l-8.82-1.74,.21,9.46,68.43-30.66-69.33-10.55,.12,5.37,18.21,3.42Zm6.62,1.55l19.33,2.99c.82,.13,1.45,.78,1.56,1.6,.11,.82-.34,1.61-1.1,1.94l-12.1,5.26c-.24,.1-.49,.15-.74,.15-.13,0-.25-.01-.38-.04l-16.48-3.41c-.77-.16-1.36-.79-1.46-1.56-.11-.78,.28-1.54,.98-1.91l9.24-4.83c.35-.18,.75-.25,1.15-.19Zm51.5,1.41c-.11-.07-.33-.17-.6-.05l-75.47,33.81c-.72,2.54-2.16,4.84-4.19,6.63-.12,.1-.25,.2-.37,.3,4.93-.24,9.8-1.38,14.35-3.4l66.2-29.33c.23-.1,.37-.33,.37-.57v-6.86c0-.3-.18-.46-.29-.53Zm-52.1,29.11l-18.77,7.96c-.24,.1-.48,.15-.73,.15-.72,0-1.41-.43-1.71-1.13-.4-.95,.04-2.04,.99-2.44l18.77-7.96c.95-.4,2.04,.04,2.44,.99,.4,.95-.04,2.04-.99,2.44Zm26.35-11.56l-19.14,8.15c-.24,.1-.48,.15-.73,.15-.72,0-1.41-.42-1.71-1.13-.4-.95,.04-2.04,.98-2.44l19.14-8.15c.94-.4,2.04,.04,2.44,.98,.4,.95-.04,2.04-.98,2.44Z"/>
          <path class="cls-21" d="M201.71,304.75s0-.01,0-.02l-.26-12.06h0s-2.67-122.57-2.67-122.57c-.11-5.24-4.3-9.6-9.54-9.93L14.51,149.37c-.21-.01-.42-.02-.62-.02-2.64,0-5.2,1.04-7.11,2.89-.3,.3-.58,.61-.84,.94,2.08-1.39,4.46-1.87,7.64-1.63l168.87,12.48c6.88,.52,12.22,6.12,12.41,13.01l4.16,145.99c.16,5.71-3.31,10.91-8.65,12.94l-2.79,1.06,2.89,.44h.04c2.97,.45,5.97-.43,8.22-2.41,2.26-1.99,3.52-4.85,3.46-7.86l-.49-22.45Z"/>
          <path d="M283.49,294.34c-.23-.15-.47-.27-.72-.37-.23-.16-.48-.27-.77-.31l-77.06-11.72-2.44-111.92c-.16-7.16-5.88-13.11-13.03-13.56L14.74,145.65c-3.91-.24-7.76,1.19-10.56,3.92C1.38,152.31-.14,156.13,0,160.04l5.37,141.5h0c.25,6.64,5.21,12.2,11.78,13.2l162.89,24.9s0,0,.01,0l9.88,1.51s.03,0,.05,0c0,0,0,0,0,0l3.59,.44c1.77,.22,3.55,.32,5.33,.32,6.1,0,12.16-1.27,17.78-3.76l66.2-29.33c1.57-.7,2.59-2.26,2.59-3.98v-6.86c0-1.48-.74-2.84-1.98-3.65Zm-9.14,1.92l-68.43,30.66-.21-9.46,8.82,1.74c.12,.02,.24,.04,.36,.04,.28,0,.56-.06,.82-.19l14.78-7.25c.71-.35,1.12-1.11,1.03-1.89-.1-.79-.68-1.43-1.45-1.59l-15.07-3.27c-.41-.09-.83-.04-1.21,.14l-8.27,4.01-.07-3.26,18.28-7.9c.75-.32,1.2-1.1,1.11-1.91-.09-.81-.7-1.47-1.51-1.62l-18.21-3.42-.12-5.37,69.33,10.55Zm-68.72,17.39v-.37s9.22-4.48,9.22-4.48l9.22,2-9.42,4.62-9.01-1.77Zm-.26-11.73l-.15-7.04,11.46,2.15-11.3,4.88Zm-187.65,9.14c-4.81-.74-8.44-4.8-8.62-9.66h0S3.9,164.48,3.9,164.48l2.94-7.25c1.74-1.7,3.42-2.2,6.47-1.97l168.87,12.48c4.97,.38,8.83,4.42,8.97,9.41l4.16,145.99c.12,4.13-2.4,7.88-6.25,9.35l-8.93,3.4-162.41-24.83Zm181.02,24c-2.26,1.98-5.25,2.86-8.22,2.41h-.04s-2.89-.45-2.89-.45l2.79-1.06c5.34-2.03,8.81-7.23,8.65-12.94l-4.16-145.99c-.2-6.9-5.53-12.49-12.41-13.01L13.59,151.55c-3.19-.24-5.56,.24-7.64,1.63,.26-.33,.54-.65,.84-.94,1.9-1.86,4.46-2.89,7.11-2.89,.21,0,.42,0,.62,.02l174.73,10.8c5.23,.32,9.42,4.68,9.54,9.93l2.67,122.56h0s.26,12.07,.26,12.07c0,0,0,.01,0,.02l.49,22.45c.07,3.01-1.19,5.88-3.46,7.86Zm83-30.21c0,.25-.15,.47-.37,.57l-66.2,29.33c-4.55,2.01-9.41,3.16-14.35,3.4,.12-.1,.25-.19,.37-.3,2.03-1.78,3.47-4.09,4.19-6.63l75.47-33.81c.27-.12,.49-.02,.6,.05,.11,.07,.29,.23,.29,.53v6.86Z"/>
          <path d="M218.6,302.98c.11,.78,.7,1.4,1.46,1.56l16.48,3.41c.12,.03,.25,.04,.38,.04,.25,0,.51-.05,.74-.15l12.1-5.26c.76-.33,1.21-1.12,1.1-1.94-.11-.82-.74-1.47-1.56-1.6l-19.33-2.99c-.39-.06-.79,0-1.15,.19l-9.24,4.83c-.7,.36-1.09,1.13-.98,1.91Zm11.4-3.16l12.38,1.91-5.66,2.46-10.8-2.24,4.08-2.14Z"/>
          <path d="M227.91,323.14l-18.77,7.96c-.95,.4-1.39,1.49-.99,2.44,.3,.71,.99,1.13,1.71,1.13,.24,0,.49-.05,.73-.15l18.77-7.96c.95-.4,1.39-1.49,.99-2.44-.4-.95-1.49-1.39-2.44-.99Z"/>
          <path d="M254.26,311.58l-19.14,8.15c-.95,.4-1.39,1.49-.98,2.44,.3,.71,.99,1.13,1.71,1.13,.24,0,.49-.05,.73-.15l19.14-8.15c.95-.4,1.39-1.49,.98-2.44-.4-.95-1.5-1.39-2.44-.98Z"/>
        </g>
        <path class="cls-9" d="M342.72,207.57c-.15-4.38-.8-8.81-1.55-13.12-.12-.7-.23-1.38-.34-2.08,.69-7.31-.51-14.33-4.09-21.15-4.42-8.43-11.83-14.91-20.53-18.65-18.33-7.89-39.42-2.56-53.44,11.19-2,1.97-.39,5.06,2.17,5.24,13.17,.92,22.61,11.56,31.97,19.62,1.69,1.45,3.41,2.86,5.18,4.17-7.12,2.46-12.32,8.52-15.25,15.68-4.8,11.72-3.69,24.55-4.85,36.89-.26,2.72,3.28,2.92,4.57,1.24,5.37-7,14.44-9.05,22.66-10.54,8.51-1.54,17.34-2.87,24.44-8.2,6.61-4.96,9.35-12.15,9.07-20.29Zm-21.37-6.65s.02,.05,.03,.07c3.54,7.03-2.5,13.95-8.33,17.06-5.33,2.84-11.25,4.22-16.71,6.75,.2-5.27,1.41-10.45,3.67-15.25,2.26-4.81,5.71-8.41,8.88-12.45,1.09,.57,2.2,1.11,3.35,1.58,2.78,1.14,5.96,2.08,9.1,2.24Zm17.04,5.08c-.07,4.3-.55,8.78-2.76,12.56-2.09,3.58-5.48,6.1-9.14,7.91-12.48,6.17-28.37,4.06-39.33,12.65,.16-8.73-.27-17.61,1.98-26.06,2.14-8.05,7.36-15.64,15.25-18.66,.62,.41,1.24,.82,1.87,1.2-4.24,3.06-7.46,8.05-9.65,12.5-3.07,6.25-4.55,13.08-4.35,20.04,.04,1.56,1.7,2.54,3.08,1.77,7.8-4.39,17.18-5.4,24.29-11.1,5.5-4.4,8.6-11.69,5.42-18.11,.82-.15,1.62-.38,2.4-.69,.02,.19,.03,.37,.05,.57,.15,1.43-.09,2.94,1.23,3.82,.26,.17,.72,.19,.98,0,1.47-1.11,.97-2.89,.69-4.52-.35-2.01-1.07-3.31-2.32-4.88-.27-.34-.8-.04-.81,.34-.01,.65,0,1.27,.01,1.88-5.63-1.46-10.99-2.41-16.17-5.49-5.67-3.37-10.5-7.77-15.37-12.18-7.15-6.49-14.78-12.8-23.99-15.46,11.89-8.98,27.49-11.98,41.79-6.49,11.86,4.55,21.19,15.28,24.36,27.59,.4,6.93,.59,13.9,.47,20.82Z"/>
      </g>
      <g>
        <path class="cls-10" d="M14.94,369.95l.89,113.8,31.07-.24-.89-113.8-31.07,.24Zm23.24,69.63c-.35-.86,.86-2.17,1.56-.88,.53,.72-1.03,2.03-1.56,.88Zm-5.07,21.39c-1.58-1.72-2.3-3.44-.04-4.9l2.11,1.71s.35,0,.52,0c1.92-.59,1.57-.3,2.63,1.85,.53,1.15-4.17,2.48-5.23,1.34Zm-3.19-6.61c-.17,.29-.69,.58-1.04,.44v-.87c.34-.15,.87,.14,1.04,.42Zm-8.38-45.23c1.22,.28,.2,2.59,.02,3.03l-.02-3.03Zm1.54-3.91l-1.56,1.74-.02-2.16c.17-1.01,2.09-.31,1.57,.42Zm6.42,61.83l-3.84,.03c-.18,0-.53-.29-.53-.43,0-.14-.36-1.3-.54-1.73v-.43c.87-.3,2.45,.99,3.32,1.27,0,0,2.79,.27,1.58,1.29Zm9.46,4.69l-1.03,2.61c0,.14-.35,.43-.52,.44l-4.19,.03v-1.73c.15-1.01,1.37-1.31,2.06-2.18,1.03-1.6-1.59-2.87-2.13-3.88v-1.3c-.9-2.59-1.77-2.15-4.22-2.56-2.1-.27,.33-2.89-3.32-.84h-.52c-.72-2.3,1.71-4.05,2.22-6.22h.52c.36,1.58,.9,3.59,2.13,4.88,1.94,2.15,4.05,4.58,6.33,6.44,0,0,1.05,.28,1.05,.42v1.73c.9,1.58,2.11,.56,1.6,2.15Zm-1.61-5.18c-.17,0-.53-.28-.53-.43,0-.14-.53-1.15-.53-1.29l-1.06-1.29c.34-.72,2.26-.74,2.61-.89,3.31-1.18,3.35,4.59-.49,3.9Z"/>
        <path class="cls-10" d="M83.13,385.14l.52-.44c-.18-.29-.7-.57-1.05-.43v.43c0,.14,.36,.43,.53,.43Z"/>
        <path class="cls-10" d="M66.15,378.78c0,.14,.88,.86,1.05,.86,2.09-.88-1.59-2.73-1.05-.86Z"/>
        <path class="cls-10" d="M110.83,445.07c-.03-4.04-2.16-8.64-4.63-12.23-.6-.97-8.74-8.07-12.37-7.26-.11-.5-.05-.98,.11-1.41,1.77,.51,3.89-.78,5.72-1.66,3.3-1.47,5.73-3.94,7.45-6.55,1.55-2.61,3.09-6.8,3.07-9.26l-.1-12.98c0-.29-1.08-4.32-1.62-5.76-4.29-12.52-23.71-18.28-38.2-18.45-5.06-.1-17.11-.01-17.28,.14l-.52,.44,.14,17.89,.53,.43c11.35,.06,23.55-1.34,24.87,10.77,.38,3.89,.42,8.8-2.7,12.14-1.73,2.03-3.12,2.48-5.73,3.51-.52,.15-1.91,.74-2.09,.74l-14.66,.12,.15,19.04,13.61-.11c6.28-.05,10.17,6.12,11.25,10.3,.03,4.33,.72,24.8,.75,29.13,.03,3.17,.05,5.77,1.64,8.78,0,.14,.35,.43,.53,.43l31.07-.24c.18,0,.52-.29,.52-.44l-1.26-4.46-.26-33.03Zm-52.16-18.34c-.88-.71,1.39-.88,1.56-.88,.36,1.01-.51,1.74-1.56,.88Zm13.63,1.63s-.35,0-.52,0c-.17,0-.53-.28-.53-.43-.18-.58,.51-2.31,1.56-1.75l-.51,2.17Zm-.56-4.76c-.18-.14-.53-.72-.53-.86,0-.14,.86-1.16,1.04-1.31,.69-1.16,.86-1.88,2.07-2.61,.52-.29,1.75,.85,1.75,.85,.53,.72-2.41,4.78-4.33,3.93Zm16.22-24.5c0-.86,2.61-.6,2.1,.42-.52,.87-2.09,.74-2.1-.42Zm6.76-6.25c.52,.14,1.25,3.16,1.07,3.6-.52,.29-1.58-.85-1.58-.85l-.02-2.31c0-.14,.35-.44,.52-.44Zm-2.64-2.58v.43s-.52,0-.52,0v-.43s.52,0,.52,0Zm-.49,4.04c1.4,.85-.5,2.46-1.56,1.31-.53-.72,.69-1.74,1.56-1.31Zm-14.78-14.89c.17,0,.18,.29,0,.29-.18,0-.18-.29,0-.29Zm.06,7.07c-.18-.29-1.41-1.14-1.76-1.28-2.1-1.14-5.41,.62-6.82-1.68-.18-.14-.36-1.58-.54-1.73-1.06-1.43-3.66,1.33-4.72-.4-.35-.72,2.44-.6,2.08-2.18-.73-3.46-4.22-3.43,2.59-3.05l4.19-.03c.35,0,2.27,.7,2.62,.84,.17,0,.53,.72,.53,.86,0,.29-.16,2.31,.02,2.6,0,.15,1.75,1,2.28,1.28,1.05,.57,1.55-3.19,3.12-2.62,1.58,.71-.67,4.19,2.64,3.01,.7-.29,1.39-1.02,1.03-1.74,1.74-.45,5.58-.91,4.73,1.69-.35,0-1.74,.3-2.09,.45-1.92,.59,2.28,1.86-4.16,3.93-1.74,.59-1.93-1.28-2.11-2.15-2.45-.41-2.26,1.46-3.65,2.19Zm11.16,88.33c-.18-.14-.53-.72-.53-.86,0-.15,.35-.44,.52-.44,.7,.28,.71,1,.01,1.3Zm1.01-4.77c.18,1.3,3,4.59-2.61,1.32-.36-.86,2.92-5.5,3.62-5.65l2.09-.02c.35,.43-3.47,2.77-3.11,4.35Zm7.83-2.95c-.18,0-.18-.29,0-.29,.17,0,.18,.29,0,.29Z"/>
        <path class="cls-10" d="M161.18,384.66c-.18-.29-1.06-1.43-1.06-1.72v-1.73s-1.07-1.72-1.07-1.72c-.7-.28-1.57,.88-1.57,.88-1.39,.59-4.19,.18-5.23,1.34,0,0-.34,1.01-.51,1.3l-31.36,97.32v1.87c.02,.14,.37,.43,.54,.43l29.5-.23,1.04-.87,12.17-50.29v-.86s2.53-9.97,2.53-9.97c1.02-3.32,3.6-7.82,2.71-10.98l-7.7-24.75Zm-4.03,20.95c-.18-.72,.86-1.02,1.56-.88,.18,.43,.54,2.59,.55,3.03,.18,.86-1.38,1.89-2.09,.88-.18-.14,.33-2.02-.02-3.03Zm-4.25-7.32l1.56-1.74c.17-.43-.54-1.58,.51-1.74,.17,0,.53,.28,.53,.43,1.76,1.86,.91,5.04,3.71,6.03-.69,1.16-.18,0-1.04,.44-.18,0-.87,.87-1.04,.87-2.09,.74-4.91-3.42-4.22-4.29Zm-6.62,23.56c.35,0,.35,.43,0,.43-.35,0-.35-.43,0-.43Zm-11.4,37.16c0-.14,.34-.87,.52-1.01h.52s0,.57,0,.57c-.17,.29-.69,.58-1.04,.44Zm9.6-.51c-1.73,2.18-4.02-.83-6.47-.96-1.25-2.88,4.19,.26,4.88-.9-.37-2.45-3-4.16,2.07-3.48v.43c0,.14-.51,1.59-.51,1.74l.02,3.17Zm3.17,3v-.87s.52,.43,.52,.43l-.52,.44Zm5.03-26.29c-2.08,1.17-4.7,1.05-6.26,3.22-.69,.87,2.27,.7,1.58,1.72l-2.6,2.18c-3.12,2.19-1.04,1.31,1.07,3.45-.34,.87-1.57-.13-2.61,1.32,0,.14-.52,.44-.52,.44l-2.26,.88c-1.56,1.6,.38,3.89-1,5.63,0,0-3.5-1.56-3.68-2.14-.18-.43,2.24-4.06,2.58-5.21,.17-.29,.51-1.3,.51-1.3,.17-.15,1.56-1.17,1.56-1.31v-1.73s1.71-2.61,1.71-2.61c.52-.87,2.93-5.07,2.57-5.79-1.05-.71-1.56,2.03-3.13,1.32v-.43c1.72-3.47,3.65-1.9,7.3-3.09,.69-1.3-4.55-.97-4.74-2.99-.18-1.01-.2-3.32-.03-3.46l.52-.44c.18,0,.53,.28,.53,.43v1.73c.19,.72,1.24,.28,1.58-.01,.7,.28,4.03,1.56,4.73,1.69l2.62-.02c5.77,1.11-1.37,3.18-1.54,3.47-.17,.43-.5,2.6-.5,3.03Zm2.61-1.75c-.35,0-.35-.43,0-.43,.35,0,.35,.43,0,.43Zm.59,7.93c-.36-.86,.86-2.03,1.56-.88,.53,.72-1.04,1.02-1.56,.88Zm.36-20.92c1.39-1.02,4.87-1.77,6.28-.48-.69,1.16-7.31,2.22-6.28,.48Z"/>
        <path class="cls-10" d="M158.51,377.32c.17-.15,.16-1.3-.01-1.73-.36-1.44-1.44-5.18-1.61-5.32l-.53-.43c-1.39,.59-2.91,6.95-2.56,7.52,1.23,1.58,3.33,1.99,4.71-.04Z"/>
        <path class="cls-10" d="M222.56,465.68c-.71-.86-1.41-2.01-1.07-3.02l-23.56-66.89-.02-2.16-9.1-25.31-25.83,.2,20.26,68.36s.36,.72,.53,.86c.18,.14,1.06,1.15,1.06,1.29,.18,.58,.2,2.88,.03,3.46l11.47,38.28s.71,1.29,1.06,1.29l29.5-.23c1.4-.01,.15-2.89-.02-3.17-.71-1.87-3.58-10.93-4.29-12.95Zm-50.18-78.22c.17,0,.18,.29,0,.29-.18,0-.18-.29,0-.29Zm.56,4.03l-.53-.43,.52-.44,.53,.43-.52,.44Zm3.12-2.19c-.18-1.15,.32-3.18,1.54-3.91,.18,0,.53,.28,.53,.43,.53,1.58-.68,2.6-2.07,3.48Zm14.39,31.77l1.05,.86c0,1.01-2.79-.12-1.05-.86Zm.87-22.65c-2.26,.59-1.76-2.01-2.12-3.01-.36-1.3-3.84,.17-4.18,.9v1.3c-.33,1.16-3.48-.41-2.59,1.75,0,.14,.35,.43,.53,.43,.7,0,3.49,.41,4.19,.4,.87,.14,1.39-.59,2.09-.45,.89,1.72-2.93,5.07-4.68,4.36-3.5-1.41-3.34-3.15-6.32-4.28-.18,0-.53-.28-.53-.43,.87-.58,2.05-5.21,2.05-5.21-.18-.14-1.57-.28-1.57-.42-1.41-2.15,1.9-2.9,2.58-4.49,0,0,0-.29,0-.43,0-.14-.54-1.58-.54-1.73l-.05-6.06c-.18-.86-2.62-.41-2.62-.41-.7-.72,1.55-2.18,2.6-1.75l3.16,2.57,1.58,.85c.53,.57-2.59,3.48-2.58,4.78,.01,1.59,2.99,3.29,4.74,2.99,.34-1.16-.89-1.72-.55-3.02,.87-.3,1.41,1,1.58,1.29,.35,.57,1.06,2.16,1.06,2.16,0,.14-.51,1.59-.51,1.73,0,.14,0,1.01,0,1.01,.71,.86,2.1,.7,2.63,1.71,0,.14,1.42,3.16,.03,3.46Zm8.13,79.12l.04-.03,.56,.4-.07,.06-.53-.43Z"/>
        <path class="cls-10" d="M350.71,473.47c.35,.14,.87-.15,1.04-.44h-1.05s0,.44,0,.44Z"/>
        <path class="cls-10" d="M360.26,466.9l-1.04,1.31-.52,.44v.87c2.11,.56,2.78-2.62,1.56-2.61Z"/>
        <path class="cls-10" d="M350.14,467.41c-.17,.15-.17,.72,0,.87,.52-.44,1.91-1.46,1.55-2.18-.35,.15-1.39,1.02-1.56,1.31Z"/>
        <path class="cls-10" d="M357.64,466.49l-1.04,.87h1.57c.17-.3-.18-.73-.53-.87Z"/>
        <path class="cls-10" d="M367.48,452.42c-.18-1.01-2.1-.85-2.63-1.71-.89-1.58,2.79,.27,3.12-2.19,.5-3.03-1.24-2.01-.56-4.76,.17-.58,.5-2.74,.5-3.03l-.56-71.54-29.5,.23,.89,113.8,29.5-.23-.2-25.82c-3.52-4.01-.02-2.45-.56-4.76Zm-15.29-57.29c.17-.15,1.4-.3,1.57-.45,.17-.15,.33-2.17,.51-2.31,.17-.15,3.47-2.19,4.36-.9-1.56,.88-1.37,3.33-1.01,4.48,5.07,1.11,2.46,2.14,2.14,5.18l.02,2.6c0,.29-1.38,1.89-1.55,2.18-.68,1.88,.89,2.16-2.07,2.61-1.92,.3-.7-.14-2.28-.85-.18-.14-1.92-.27-2.1-.42l-1.06-1.72c-.89-2.01,3.13-1.75,3.64-3.06,.68-1.59-4.58-5.73-2.15-7.34Zm5.03,17.7s-.3,5.77-1,5.78c0,0-1.05-.28-1.22-.42-.18,0-.53-.29-.53-.43l-.02-3.17c-.19-1.73-.57-5.19,2.78-1.75Zm-7.52-2.11h1.05s0,.42,0,.42c-.35,.15-.87-.14-1.05-.42Zm.54,1.87c-.18,0-.18-.29,0-.29,.18,0,.18,.29,0,.29Zm-.1-12.69l1.05,.86-2.6,2.18v-.86c.16-.87,.5-1.59,1.55-2.18Zm-3.11,3.49h.52s-.52,.43-.52,.43v-.43Zm9.65,73.49c-.35,0-1.58-1.14-1.76-1.29-2.45-1.13-5.05,.91-5.76,.48-3.33-1.99-.9-3.17,.49-4.76,2.07-2.76-5.95-2.26-.05-6.49,1.74-1.31,.15-2.74,1.54-3.91,1.21-1.02,2.27-.45,1.55-2.32-.71-1.58-2.81-1.71-3.69-3-.35-.57,3.12-2.48,4.17-2.2,1.75,.42,.91,4.18,3.35,4.73,3.85,1.12-.33,2.02,1.6,3.16,.18,.14,1.58,.71,1.58,.85,.18,.14,.02,2.02,.02,2.16,.18,.29,1.23,1.58,1.58,1.72l.05,6.06c-1.4,.3,.05,6.35-4.68,4.8Z"/>
        <path class="cls-10" d="M358.17,399.99c.18,0,.17-.29,0-.29-.18,0-.17,.29,0,.29Z"/>
        <path class="cls-10" d="M333.66,369.46l-8.55,.07c-.35,0-1.04,1.31-1.04,1.31l-21.41,74.74c-.51,1.88-1.39,.44-1.75-.42l-23.1-74.39-1.05-.86-8.03,.06,.4,51.06,24.22,61.26c0,.15,.35,.72,.53,.86,.18,.14,.53,.43,.53,.43l14.31-.11c.35,0,1.04-1.31,1.04-1.31l5.77-14.77,.11-.02,10.08-25.5,8.35-20.91-.4-51.49Zm-54.07,27.97c.35,0,.35,.43,0,.43-.35,0-.35-.43,0-.43Zm-3.52,18.78c-.35,0-.35-.57,0-.58,.35,0,.35,.57,0,.58Zm-1.81-7.49v-.87c4.71,.54,5.2-3.36,6.96-2.65,.52,.14,6.35,9.18-2.57,6.08-2.1-.7-1.07-2.59-4.38-2.56Zm4.43,8.33c-.36-1.58-.2-2.88,1.01-4.05h.52c2.81,1.71,1.58,1.43,.03,3.17-.69,.73-.17,.87-1.04,1.31-.17,0-.53-.29-.53-.43Zm.68,20.33l-.02-2.16c0-.15,.35-.44,.52-.44,1.23,.71,1.25,3.74-.5,2.6Zm3.13-1.32c-.18,0-.53-.28-.53-.43-.18-.14-.53-.72-.53-.86,.87-.44,1.23,.86,1.06,1.29Zm.97-10.39c-.35-.29,.34-.87,.52-.87l1.05,.86c0,1.01-1.57,.01-1.57,.01Zm2.02-9.1c-.86,1.16-1.72,3.04-3.11,3.92-.17,0-.53-.28-.53-.43-3.17-3.73,5.02-5.52,3.64-3.49Zm44.92,7.87l-1.74,1.31c-.17,.15-.51,1.59-.51,1.73,0,.14-.34,1.16-.51,1.3l-.02-2.6c0-.29,.86-2.17,1.03-2.6,.69-1.16,2.44-.02,1.75,.85Z"/>
        <path class="cls-10" d="M235.58,370.22l.89,113.8,28.97-.23-.89-113.8-28.97,.23Zm8.96,7c1.24,1.72,3.21,9.2-1.01,4.77,0-1.01,.32-3.46,1.01-4.77Zm1.28,96.34c-.17,0-.18-.29,0-.29,.18,0,.18,.29,0,.29Zm11.12-7.16c-.35,.44-2.94,3.05-3.11,3.49-.17,.29-.33,2.74-.5,3.03-.34,1.3-3.84,.46-4.71,.04l-2.28-1.28c-.18-.14-1.92-.42-2.1-.42-1.22-.42-.55-2.88-.55-3.03,0-.14-1.05-.71-1.05-.86l-.02-2.6c.33-2.31,.15-2.74-1.09-5.33-.32-.78,.5-.4,.92-.74,3.03-.6,8.01-3.42,8.74-3.85,.02-.01,.05-.03,.07-.04,.01,0,.03-.02,.03-.02h0c1.11-.7,.54-2.42,2.94-1.94,.9,4.03-3.3,2.04-2.56,7.09,.37,2.16,4.53-1.62,5.78,2.55,.18,.72-.69,1.16-1.03,1.74-.52,.72,1.23,1.29,.54,2.16Z"/>
        <path class="cls-10" d="M248.04,468.21c-1.39,.44-1.9,2.04-.68,2.6,.18,.14,1.05,.42,1.23,.42,.69-.58,2.08-1.46,3.13-1.76l-2.62,.02c-.87-.14-.36-1.01-1.06-1.29Z"/>
        <path class="cls-10" d="M354.3,397.13c-.18,0-.17,.29,0,.29,.17,0,.17-.29,0-.29Z"/>
        <path class="cls-10" d="M252.71,463.85c0,.14-.52,.72-.52,.87,.18,.29,1.76,1.57,2.1,.42,.34-1.3-.57-5.91-1.58-1.28Z"/>
        <path class="cls-10" d="M380.85,369.69l.89,113.8,31.07-.24-.89-113.8-31.07,.24Zm14.97,84.41c-.17,.29-.69,.58-1.04,.44v-.87c.34-.15,.87,.14,1.04,.42Zm-8.38-45.23c1.22,.28,.2,2.59,.02,3.03l-.02-3.03Zm11.54,46.93l2.11,1.71s.35,0,.52,0c1.92-.59,1.57-.3,2.63,1.85,.53,1.15-4.17,2.48-5.23,1.34-1.58-1.72-2.3-3.44-.04-4.9Zm5.11-16.48c-.36-.86,.86-2.17,1.56-.88,.53,.72-1.03,2.03-1.56,.88Zm-10.76-36.99c.35,.86-.86,2.03-1.57,.88,0,0,1.04-1.16,1.57-.88Zm-.55-3.89l-.52,.44v-.43s.52,0,.52,0Zm-1.03,2.17c.35,0,.35,.43,0,.43-.52,0-.53-.43,0-.43Zm-2.76,4.35l-1.56,1.74-.02-2.16c.17-1.01,2.09-.31,1.57,.42Zm6.42,61.83l-3.84,.03c-.18,0-.53-.29-.53-.43,0-.14-.36-1.3-.54-1.73v-.43c.87-.3,2.45,.99,3.32,1.27,0,0,2.79,.27,1.58,1.29Zm9.46,4.69l-1.03,2.61c0,.14-.35,.43-.52,.44l-4.19,.03v-1.73c.15-1.01,1.37-1.31,2.06-2.18,1.03-1.6-1.59-2.87-2.13-3.88v-1.3c-.9-2.59-1.77-2.15-4.22-2.56-2.1-.27,.33-2.89-3.32-.84h-.52c-.72-2.3,1.71-4.05,2.22-6.22h.52c.36,1.58,.9,3.59,2.13,4.88,1.94,2.15,4.05,4.58,6.33,6.44,0,0,1.05,.28,1.05,.42v1.73c.9,1.58,2.11,.56,1.6,2.15Zm-1.61-5.18c-.17,0-.53-.28-.53-.43,0-.14-.53-1.15-.53-1.29l-1.06-1.29c.34-.72,2.26-.74,2.61-.89,3.31-1.18,3.35,4.59-.49,3.9Z"/>
        <path class="cls-10" d="M449.04,384.88l.52-.44c-.18-.29-.7-.57-1.05-.43v.43c0,.14,.36,.43,.53,.43Z"/>
        <path class="cls-10" d="M432.06,378.52c0,.14,.88,.86,1.05,.86,2.09-.88-1.59-2.73-1.05-.86Z"/>
        <path class="cls-10" d="M465.4,429.09c-.89-.44-1.85-.98-2.8-1.36-.29-.15-.58-.25-.87-.29,0,0,0,0,0,0-.24-.07-.49-.12-.72-.15-1.28-.36-1.38-1.12-.97-1.93,1.73,.39,3.77-.87,5.54-1.74,3.3-1.5,5.73-4.04,7.45-6.72,2.93-5.06,3.2-10.38,3.11-16.13-.1-6.76-.81-13.51-5.36-18.77-3.78-4.37-9.09-7.18-14.4-9.11-6.45-2.34-13.36-3.55-20.2-3.64-5.06-.11-17.11-.01-17.28,.14l-.52,.45,.14,18.35,.53,.44c11.35,.06,23.55-1.37,24.87,11.04,.38,3.99,.42,9.02-2.7,12.45-1.73,2.09-3.12,2.54-5.73,3.6-.52,.15-1.91,.75-2.09,.76l-14.66,.12,.07,9.81h-.01l.09,9.7,14.34,.12c.18,0,1.57,.6,2.09,.76,2.61,1.06,4,1.51,5.73,3.6,3.12,3.43,3.08,8.46,2.7,12.45-1.32,12.42-13.52,10.99-24.87,11.04l-.53,.44-.14,18.35,.52,.45c.17,.15,12.22,.25,17.28,.14,11.76-.15,26.58-3.31,34.69-12.82,3.89-4.57,5.25-10.77,5.45-16.69,.21-5.9-.04-13.06-3.3-18.13-1.72-2.68-4.15-5.21-7.45-6.72Zm-11.5-25.05c0,.3-.52,.3-.52,0,0-.3,.52-.3,.52,0Zm-.03-4.44c0-.89,2.61-.61,2.1,.43-.52,.89-2.09,.76-2.1-.43Zm2.13,3.98h.52s-.52,.44-.52,.44v-.44Zm10.46-.97c.68-1.93-.89-2.8-.56-4.88,3.68,2.19,5.35,14.6-2.52,12.45l-.02-2.22c-.18-.89-3.14-.57-3.15-1.31l-.03-3.55,1.04-.9c1.23,.58,.01,1.48,.02,2.22,.01,1.63,5.05-1.37,5.22-1.82Zm-5.83-9.42c.52,.14,1.25,3.24,1.07,3.69-.52,.3-1.58-.87-1.58-.87l-.02-2.37c0-.15,.35-.45,.52-.45Zm-2.64-2.64v.44s-.52,0-.52,0v-.44s.52,0,.52,0Zm-.49,4.15c1.4,.88-.5,2.52-1.56,1.34-.53-.74,.68-1.78,1.56-1.34Zm-14.78-15.27c.17,0,.18,.29,0,.3-.18,0-.18-.29,0-.3Zm.06,7.25c-.18-.3-1.41-1.17-1.76-1.32-2.1-1.17-5.41,.63-6.82-1.72-.18-.15-.36-1.62-.54-1.77-1.06-1.47-3.66,1.36-4.72-.41-.35-.74,2.44-.61,2.08-2.24-.73-3.54-4.22-3.52,2.59-3.13l4.19-.03c.35,0,2.27,.72,2.62,.87,.17,0,.53,.73,.53,.88,0,.3-.16,2.37,.02,2.66,0,.15,1.75,1.02,2.28,1.32,1.05,.58,1.55-3.27,3.12-2.69,1.58,.73-.67,4.3,2.64,3.09,.7-.3,1.39-1.05,1.03-1.78,1.74-.46,5.58-.93,4.73,1.74-.35,0-1.74,.31-2.09,.46-1.92,.61,2.28,1.9-4.16,4.03-1.74,.61-1.93-1.32-2.11-2.2-2.45-.42-2.26,1.5-3.65,2.25Zm-.23,86.62c-.18,0-.17-.3,0-.3,.17,0,.17,.3,0,.3Zm7.34-.98c.35-.74-.34-1.48-1.03-1.78-3.31-1.21-1.07,2.36-2.64,3.09-1.57,.58-2.07-3.27-3.12-2.69-.53,.29-2.28,1.17-2.28,1.32-.18,.29-.02,2.37-.02,2.66,0,.15-.36,.88-.53,.88-.35,.15-2.28,.87-2.62,.87l-4.19-.03c-6.81,.39-3.32,.42-2.59-3.13,.36-1.63-2.43-1.5-2.08-2.24,1.06-1.77,3.66,1.07,4.72-.41,.18-.15,.36-1.62,.54-1.77,1.41-2.36,4.72-.55,6.82-1.72,.35-.15,1.58-1.02,1.76-1.32,1.39,.75,1.2,2.67,3.65,2.25,.18-.89,.37-2.81,2.11-2.2,6.44,2.12,2.24,3.42,4.16,4.03,.35,.15,1.74,.46,2.09,.46,.85,2.67-2.99,2.19-4.73,1.74Zm7.93-10.15h-.52s0-.45,0-.45h.52s0,.45,0,.45Z"/>
        <path class="cls-10" d="M547.81,407.48c-.35,0-.71,.03-1.06,.1-2.71,.49-4.76,2.87-4.76,5.72s2.05,5.23,4.76,5.72c.35,.07,.7,.1,1.06,.1,3.21,0,5.81-2.61,5.81-5.81s-2.6-5.82-5.81-5.82Z"/>
        <path class="cls-10" d="M596.51,451.03c-.25-2.24-2.43-3.2-4.14-4.13l-5.07-2.83s4.86,3.18,4.85,3.18c1.49,1.01,3.44,1.87,3.54,3.88,.25,2.17-2.18,4.12-4.31,3.72-1.11-.21-2.95-.71-4-1.03-3.28-1.12-7.43-2.55-11.76-4.03-7.85-2.69-16.19-5.57-20.69-7.15h0c-5.33-2.31-11.99,.15-19.98,5.23-7.99,5.08-12.32,13.96-12.32,13.96-.63,1.12-1.22,2.26-1.77,3.41-.46,1-.88,2.02-1.26,3.05-.25,.67-.46,1.38-.66,2.07l-1.02,.56v-77.74h0c15.71-10.85,30.73-4.6,35.4-2.14,17.22,9.51,20.02,29.07,15.02,41.53l7.28,4.41,11.68,7.08-.39-49.3c0-.72-.73-4.61-1.09-5.76-5.18-14.82-20.76-21.33-38.75-21.91-1.75,.01-6.28,.05-6.28,.05l-.52,.44,.14,17.45-6.28,.05-.14-17.45c0-.14-.7-.43-1.05-.42h-1.57c-2.09,.17-8.9,.8-9.59,.95l-6.8,1.35c-3.31,.75-5.92,1.63-8.88,3.24-.52,.58-.16,1.88-1.03,2.17,.31-5.34-16.85,10.52-14.21,13.52,.71,.86,4.54-.18,3.16,2.14l-1.56,1.31c-.17,.29-.51,1.45-.51,1.73h-.52c.84-4.62-2.64-2.28-2.61,1.47l.48,61.73c.03,3.61,1.46,7.34,3.22,10.5,6.55,11.34,16.7,15.59,31.21,18.07,3.67,.55,7.16,.52,10.65,.35,.72,0,.47-4.06,.48-5.34l-.09-12.12s2.45,.1,6.28-.05l.14,17.45c0,.87,11.7,.34,12.21-1.39,.17-.43,.51-2.17,.5-2.6,.88,.28,.36,.86,.53,1.3,1.08,4.03,2.08-2.47,3.12-2.77l.03,3.61c0,.43,.7,.43,1.05,.42,3.66-.75,2.07-3.48,3.11-3.63,2.1,.7-1.72,3.76,5.77,.96,11.31-4.42,19.96-14.58,19.88-25.11v-1.17c1.06,.29,2.69,.61,3.84,.81,2.85,.5,5.81-2.26,5.27-5.11Zm-26.07-65.36l-.02-2.59c2.96-.89,1.25,3.59,.02,2.59Zm-3.71-5.16c4.86-3.07,.38,3.17-1.04,.87-.35-.57,.69-.58,1.04-.87Zm-3.64,3.06c.18,.29-.17,.72-.52,.87v-.87s.52,0,.52,0Zm-4.77-7.32c1.56-1.02,2.27,.41,3.67,.84-.51,1.73-1.56,1.17-2.07,3.48,0,.15-.34,1.16-.51,1.3-.17,0-.53-.28-.53-.43-1.24-2.01-3.17-3.44-.56-5.19Zm-33.84,2.86c.18,.29-.17,.72-.52,.87-.18,0-.53-.29-.53-.43v-.43s1.04,0,1.04,0Zm-1.07-3.45c0,.14,.2,3.46-1.55,2.61v-.87c0-.29,.5-2.17,1.55-1.74Zm-29.87,19.85c-.17,0-.53-.28-.53-.43,0-.15,.34-1.3,.51-1.45,0-.14,.52-.15,.52,0,.18,.29,.36,1.73-.51,1.88Zm22.55-18.49c1.05,.28,3.13-1.47,3.66-.89,.88,1.15,.36,1.3,.54,2.59,0,.14,.36,1.01,.53,1.29,1.77,3.45-1.88,4.49-4.66,6.53l-.05-6.06c2.77-2.76-1.06-1.58-.03-3.46Zm-3.69-3c0-.29-.71-1.15-.54-1.73,4.87-2.63,3.68,1.99,3.16,2.14-.52,.15-1.4-.28-1.57,.45-.17,1.01,.54,1.73-.5,2.6-.35,.29-1.05-.28-1.05-.43-.53-.86,.68-2.02,.5-3.03Zm.58,7.79c0,.14-.52,.15-.52,0l-.02-2.16c.33-2.31,2.44-.31,.54,2.16Zm.55,3.46l-.53-.43h.52s0,.43,0,.43Zm-.64,52.22c-1.04,.73-1.4-.42-1.58-.85-.36-1.01,2.26-1.6,1.58,.85Zm1.07,2.73c-.33,1.88,2.49,6.33-2.59,3.92-1.58-.71,.84-4.33,2.59-3.92Zm-2.04,6.65c-.17,0-.18-.29,0-.29,.17,0,.18,.29,0,.29Zm1.6,3.74c1.05,.86,.36,1.58,.54,2.59l.53,.43c1.06,1.29-.97,10.11-2.56,7.52l-1.08-4.03c-.18-.43,1.53-4.77-.55-3.89,1.08,4.32-5.58,.91-3.63,4.79-1.04,.59-3.17-3.58-3.17-3.87-.18-.72-.2-3.17-.03-3.46,.17-.29,2.43-2.33,2.6-2.62l1.55-2.61c.34-.58,.87-.73,1.57-.01,.18,.72-1.02,3.76-.49,4.33,2.29,3.01,3.49-.17,4.72,.83Zm-7.95-11.62v-.43c0-.29,.33-2.02,.5-2.31,1.04-.73,3.86,2.42,2.12,2.73l-2.62,.02Zm2.13,4.31c-.17,.29-.69,.58-1.04,.44v-.43c0-.14,.34-.44,.52-.44l.53,.43Zm1.88-27.71c.17,0,.18,.43,0,.43-.18,0-.18-.43,0-.43Zm-.37,19.33c.35,0,.35,.43,0,.43-.35,0-.35-.43,0-.43Zm-.4-51.49c.17,0,.18,.29,0,.29-.18,0-.18-.29,0-.29Zm-.36,21.06c.71,2.16-2.25,2.76-3.66,.89-1.24-1.72,3.12-2.48,3.66-.89Zm-2.3,40.98c-.51,1.16-2.27,.16-2.62-.41-.18-.14-.18-1.15,0-1.3h.52s2.11,1.71,2.11,1.71Zm-2.44-43.97v.86s-1.04,0-1.04,0v-.43c.17-.29,.69-.58,1.04-.44Zm-1.71,48.77c.71,1.44-2.58,4.64-3.29,3.05-.54-1.44,1.37-3.47,3.29-3.05Zm-5.69-35.15c-.17,0-.18-.29,0-.29,.18,0,.18,.29,0,.29Zm59.93,30.26c.18,0,.18,.29,0,.29-.18,0-.18-.29,0-.29Zm-1.9,24.97c0,.14-.35,.44-.52,.44l-1.05-.86c-.53-.72,2.43-1.61,1.57,.42Zm-4.26,13.16c0-.29-.19-2.45,1.03-1.74l.02,2.16c-.35,.15-.87-.14-1.05-.42Zm5.9-4.52l-1.58-.85c-1.05-.57-.88-1.44-1.07-2.59h-.52c-.17,0-2.09,.89-2.26,.89-.18,0-.88-.43-1.05-.43-.17,0-1.39,.88-1.56,.88-1.22,.44-1.22-.42-2.1-.85-.7-.43-1.04,1.31-2.08,1.32-2.44,.02,4.31-7.25,5.7-6.97,2.97,.55,4.72,1.26,6.49,3.41,.36,.86-.86,1.59-.5,2.6,.18,.58,1.94,2,.54,2.59Zm1.56-1.31l-1.06-1.29v-.43s1.57-.01,1.57-.01v1.73s-.51,0-.51,0Zm3.13-1.32v-.43s.52,0,.52,0l-.52,.44Z"/>
      </g>
      <path class="cls-4" d="M772.54,441.11v-.44c-.36-.57-.88-.57-1.58-.42-.69,.58,1.06,1,1.58,.86Zm-4.18,1.33c1.05,.28,1.92-.45,1.56-1.31,0-.15-.35-.43-.53-.43-.69,.29-1.38,1.02-1.03,1.74Zm0,0c1.05,.28,1.92-.45,1.56-1.31,0-.15-.35-.43-.53-.43-.69,.29-1.38,1.02-1.03,1.74Zm4.18-1.33v-.44c-.36-.57-.88-.57-1.58-.42-.69,.58,1.06,1,1.58,.86Zm0,0v-.44c-.36-.57-.88-.57-1.58-.42-.69,.58,1.06,1,1.58,.86Zm-1.81-30.14v-1.73c-1.05,.44-.53,1.16,0,1.73Zm-2.37,31.47c1.05,.28,1.92-.45,1.56-1.31,0-.15-.35-.43-.53-.43-.69,.29-1.38,1.02-1.03,1.74Zm2.37-31.47v-1.73c-1.05,.44-.53,1.16,0,1.73Zm-2.37,31.47c1.05,.28,1.92-.45,1.56-1.31,0-.15-.35-.43-.53-.43-.69,.29-1.38,1.02-1.03,1.74Zm4.18-1.33v-.44c-.36-.57-.88-.57-1.58-.42-.69,.58,1.06,1,1.58,.86Zm0,0v-.44c-.36-.57-.88-.57-1.58-.42-.69,.58,1.06,1,1.58,.86Zm-1.81-30.14v-1.73c-1.05,.44-.53,1.16,0,1.73Zm-2.37,31.47c1.05,.28,1.92-.45,1.56-1.31,0-.15-.35-.43-.53-.43-.69,.29-1.38,1.02-1.03,1.74Zm2.37-31.47v-1.73c-1.05,.44-.53,1.16,0,1.73Zm-2.37,31.47c1.05,.28,1.92-.45,1.56-1.31,0-.15-.35-.43-.53-.43-.69,.29-1.38,1.02-1.03,1.74Zm4.18-1.33v-.44c-.36-.57-.88-.57-1.58-.42-.69,.58,1.06,1,1.58,.86Zm0,0v-.44c-.36-.57-.88-.57-1.58-.42-.69,.58,1.06,1,1.58,.86Zm-1.81-30.14v-1.73c-1.05,.44-.53,1.16,0,1.73Zm-2.37,31.47c1.05,.28,1.92-.45,1.56-1.31,0-.15-.35-.43-.53-.43-.69,.29-1.38,1.02-1.03,1.74Zm2.37-31.47v-1.73c-1.05,.44-.53,1.16,0,1.73Zm-2.37,31.47c1.05,.28,1.92-.45,1.56-1.31,0-.15-.35-.43-.53-.43-.69,.29-1.38,1.02-1.03,1.74Zm4.18-1.33v-.44c-.36-.57-.88-.57-1.58-.42-.69,.58,1.06,1,1.58,.86Zm0,0v-.44c-.36-.57-.88-.57-1.58-.42-.69,.58,1.06,1,1.58,.86Zm-1.81-30.14v-1.73c-1.05,.44-.53,1.16,0,1.73Zm-2.37,31.47c1.05,.28,1.92-.45,1.56-1.31,0-.15-.35-.43-.53-.43-.69,.29-1.38,1.02-1.03,1.74Zm2.37-31.47v-1.73c-1.05,.44-.53,1.16,0,1.73Zm-2.37,31.47c1.05,.28,1.92-.45,1.56-1.31,0-.15-.35-.43-.53-.43-.69,.29-1.38,1.02-1.03,1.74Zm4.18-1.33v-.44c-.36-.57-.88-.57-1.58-.42-.69,.58,1.06,1,1.58,.86Zm0,0v-.44c-.36-.57-.88-.57-1.58-.42-.69,.58,1.06,1,1.58,.86Zm-1.81-30.14v-1.73c-1.05,.44-.53,1.16,0,1.73Zm-2.37,31.47c1.05,.28,1.92-.45,1.56-1.31,0-.15-.35-.43-.53-.43-.69,.29-1.38,1.02-1.03,1.74Zm2.37-31.47v-1.73c-1.05,.44-.53,1.16,0,1.73Zm-2.37,31.47c1.05,.28,1.92-.45,1.56-1.31,0-.15-.35-.43-.53-.43-.69,.29-1.38,1.02-1.03,1.74Zm4.18-1.33v-.44c-.36-.57-.88-.57-1.58-.42-.69,.58,1.06,1,1.58,.86Zm0,0v-.44c-.36-.57-.88-.57-1.58-.42-.69,.58,1.06,1,1.58,.86Zm-1.81-30.14v-1.73c-1.05,.44-.53,1.16,0,1.73Zm-2.37,31.47c1.05,.28,1.92-.45,1.56-1.31,0-.15-.35-.43-.53-.43-.69,.29-1.38,1.02-1.03,1.74Zm2.37-31.47v-1.73c-1.05,.44-.53,1.16,0,1.73Zm-2.37,31.47c1.05,.28,1.92-.45,1.56-1.31,0-.15-.35-.43-.53-.43-.69,.29-1.38,1.02-1.03,1.74Zm4.18-1.33v-.44c-.36-.57-.88-.57-1.58-.42-.69,.58,1.06,1,1.58,.86Zm0,0v-.44c-.36-.57-.88-.57-1.58-.42-.69,.58,1.06,1,1.58,.86Zm-1.81-30.14v-1.73c-1.05,.44-.53,1.16,0,1.73Zm-2.37,31.47c1.05,.28,1.92-.45,1.56-1.31,0-.15-.35-.43-.53-.43-.69,.29-1.38,1.02-1.03,1.74Zm2.37-31.47v-1.73c-1.05,.44-.53,1.16,0,1.73Zm-2.37,31.47c1.05,.28,1.92-.45,1.56-1.31,0-.15-.35-.43-.53-.43-.69,.29-1.38,1.02-1.03,1.74Zm4.18-1.33v-.44c-.36-.57-.88-.57-1.58-.42-.69,.58,1.06,1,1.58,.86Zm-20.25,41.13l32.12-.25v-.93s-.09-10.06-.09-10.06l-.07-8.78-.14-17.84c-.01-.09-.01-.18,0-.26h0s-.56-71.46-.56-71.46c-1.92,.02,.33-2.88-.03-4.03,0-.15-.35-.43-.53-.43l-6.08,.05-25.51,.19,.89,113.8Zm6.6-93.81v.44c-.34,.14-.87-.14-1.05-.43l.52-.43c.18,0,.53,.28,.53,.42Zm-2.09,70.68v.44h-.52v-.43s.52-.01,.52-.01Zm17.02-55.52h-.53c-.17-.28,.17-.72,.52-.86v.86Zm-.68-24.79c-.17,.58-.15,3.18-1.02,3.91h-.52l-.03-3.89c0-.87,1.39-.3,1.57-.02Zm-5.07,25.27c0,.14-.34,.44-.52,.44-.18-.43-.18-1.16,.51-1.31v.87Zm1.18,15.71c-1.57-.27,.49-4.33,.49-4.76,0-.15,.52-.15,.52,0,0,0,.36,1,.53,1.29,.18,.72,.72,1.73,.55,2.59h-1.57c.17,.3-.17,.74-.52,.88Zm1.18,16.58c.69-.58,1.57,.28,2.1,.42,5.07,1.4-2.4,5.79,1.1,6.91-4.35,2.06-8.92-1.95-7.9-5.56,.35,.14,2.27,.13,2.62-.02,.35-.15,1.9-1.6,2.08-1.75Zm-3.04,13.44c-.17,0-.53-.28-.53-.43-.72-3.17,4.33-5.08,5.22-3.07,.17,.43-.17,.58-.52,.87l-4.17,2.63Zm.67,19.18c-.17,.29-.69,.58-1.04,.44v-.87c.34-.14,.87,.14,1.04,.43Zm4.74,2.56l.02,3.46c-.17,.29-1.56,.88-1.57,.01l-.03-3.89c0-1.01,1.57-.3,1.58,.42Zm-7.86,.06c.18,0,.53,.28,.53,.43,.89,2.01-3.48,1.18-.53-.43Zm1.66-56.56c.17,.15,.18,1.16,.01,1.3-1.55,3.19-3.86-2.42-.01-1.3Zm-1.61-4.02c.18,.14,.53,.72,.53,.86,.18,.58-.51,1.01-1.03,1.3-1.58-.41-.19-1.87,.5-2.16Zm1.02,63.17v.43c-1.54,3.91-4.89-1.4,0-.43Zm-3.65-43.1h.52c.18,.42,.54,2.15,.54,2.59,.37,2.3-2.73,7.37-.97,9.24-.69,.43-1.75-.71-1.58-1.29,0-.15,.51-1.16,.51-1.3l-.04-5.34c-.19-2.02-1.59-2.29,1.02-3.9Zm13.63,46.77c.17,0,.18,.29,0,.29-.17,0-.18-.29,0-.29Zm-.57-5.48v-.43h.52v.43s-.52,0-.52,0Zm.83-27.84v.86c-.68,1.74-3.15-1.7,0-.86Zm-21.52-55.21c0-.29,.52-.29,.52,0s-.52,.29-.52,0Zm26.72-19.82c.35,0,.36,.43,.01,.43s-.36-.43-.01-.43Zm-5.94,47.63h-.52l-.04-5.33c0-.15-.36-.72-.53-.87h-.53s-2.6,2.19-2.6,2.19c0,0-.35,0-.52,.01-.35-.14-1.4-1-1.58-1.29l-.52,.87c-.19-1.73-.53-.86-1.59-2.15v-.43c1.73-1.89,1.9-2.61,4.7-1.77,.17,0,1.93,.85,2.1,.85l3.67,.83c.55,2.6-1.88,4.63-2.04,7.09Zm1.86-33.61c.01,.14-.34,.72-.51,.87h-.53l-1.05-1.29c.51-.86,1.91-.44,2.09,.42Zm-8.99,58.91c1.05,.28,1.92-.45,1.56-1.31,0-.15-.35-.43-.53-.43-.69,.29-1.38,1.02-1.03,1.74Zm2.37-31.47v-1.73c-1.05,.44-.53,1.16,0,1.73Zm1.81,30.14v-.44c-.36-.57-.88-.57-1.58-.42-.69,.58,1.06,1,1.58,.86Zm0,0v-.44c-.36-.57-.88-.57-1.58-.42-.69,.58,1.06,1,1.58,.86Zm-4.18,1.33c1.05,.28,1.92-.45,1.56-1.31,0-.15-.35-.43-.53-.43-.69,.29-1.38,1.02-1.03,1.74Zm2.37-31.47v-1.73c-1.05,.44-.53,1.16,0,1.73Zm-2.37,31.47c1.05,.28,1.92-.45,1.56-1.31,0-.15-.35-.43-.53-.43-.69,.29-1.38,1.02-1.03,1.74Zm2.37-31.47v-1.73c-1.05,.44-.53,1.16,0,1.73Zm1.81,30.14v-.44c-.36-.57-.88-.57-1.58-.42-.69,.58,1.06,1,1.58,.86Zm0,0v-.44c-.36-.57-.88-.57-1.58-.42-.69,.58,1.06,1,1.58,.86Zm-4.18,1.33c1.05,.28,1.92-.45,1.56-1.31,0-.15-.35-.43-.53-.43-.69,.29-1.38,1.02-1.03,1.74Zm2.37-31.47v-1.73c-1.05,.44-.53,1.16,0,1.73Zm-2.37,31.47c1.05,.28,1.92-.45,1.56-1.31,0-.15-.35-.43-.53-.43-.69,.29-1.38,1.02-1.03,1.74Zm2.37-31.47v-1.73c-1.05,.44-.53,1.16,0,1.73Zm1.81,30.14v-.44c-.36-.57-.88-.57-1.58-.42-.69,.58,1.06,1,1.58,.86Zm0,0v-.44c-.36-.57-.88-.57-1.58-.42-.69,.58,1.06,1,1.58,.86Zm-4.18,1.33c1.05,.28,1.92-.45,1.56-1.31,0-.15-.35-.43-.53-.43-.69,.29-1.38,1.02-1.03,1.74Zm2.37-31.47v-1.73c-1.05,.44-.53,1.16,0,1.73Zm-2.37,31.47c1.05,.28,1.92-.45,1.56-1.31,0-.15-.35-.43-.53-.43-.69,.29-1.38,1.02-1.03,1.74Zm2.37-31.47v-1.73c-1.05,.44-.53,1.16,0,1.73Zm1.81,30.14v-.44c-.36-.57-.88-.57-1.58-.42-.69,.58,1.06,1,1.58,.86Zm0,0v-.44c-.36-.57-.88-.57-1.58-.42-.69,.58,1.06,1,1.58,.86Zm-4.18,1.33c1.05,.28,1.92-.45,1.56-1.31,0-.15-.35-.43-.53-.43-.69,.29-1.38,1.02-1.03,1.74Zm2.37-31.47v-1.73c-1.05,.44-.53,1.16,0,1.73Zm-2.37,31.47c1.05,.28,1.92-.45,1.56-1.31,0-.15-.35-.43-.53-.43-.69,.29-1.38,1.02-1.03,1.74Zm2.37-31.47v-1.73c-1.05,.44-.53,1.16,0,1.73Zm1.81,30.14v-.44c-.36-.57-.88-.57-1.58-.42-.69,.58,1.06,1,1.58,.86Zm0,0v-.44c-.36-.57-.88-.57-1.58-.42-.69,.58,1.06,1,1.58,.86Zm-4.18,1.33c1.05,.28,1.92-.45,1.56-1.31,0-.15-.35-.43-.53-.43-.69,.29-1.38,1.02-1.03,1.74Zm2.37-31.47v-1.73c-1.05,.44-.53,1.16,0,1.73Zm-2.37,31.47c1.05,.28,1.92-.45,1.56-1.31,0-.15-.35-.43-.53-.43-.69,.29-1.38,1.02-1.03,1.74Zm2.37-31.47v-1.73c-1.05,.44-.53,1.16,0,1.73Zm1.81,30.14v-.44c-.36-.57-.88-.57-1.58-.42-.69,.58,1.06,1,1.58,.86Zm0,0v-.44c-.36-.57-.88-.57-1.58-.42-.69,.58,1.06,1,1.58,.86Zm-4.18,1.33c1.05,.28,1.92-.45,1.56-1.31,0-.15-.35-.43-.53-.43-.69,.29-1.38,1.02-1.03,1.74Zm2.37-31.47v-1.73c-1.05,.44-.53,1.16,0,1.73Zm-2.37,31.47c1.05,.28,1.92-.45,1.56-1.31,0-.15-.35-.43-.53-.43-.69,.29-1.38,1.02-1.03,1.74Zm2.37-31.47v-1.73c-1.05,.44-.53,1.16,0,1.73Zm1.81,30.14v-.44c-.36-.57-.88-.57-1.58-.42-.69,.58,1.06,1,1.58,.86Zm0,0v-.44c-.36-.57-.88-.57-1.58-.42-.69,.58,1.06,1,1.58,.86Zm-4.18,1.33c1.05,.28,1.92-.45,1.56-1.31,0-.15-.35-.43-.53-.43-.69,.29-1.38,1.02-1.03,1.74Zm2.37-31.47v-1.73c-1.05,.44-.53,1.16,0,1.73Zm-2.37,31.47c1.05,.28,1.92-.45,1.56-1.31,0-.15-.35-.43-.53-.43-.69,.29-1.38,1.02-1.03,1.74Zm2.37-31.47v-1.73c-1.05,.44-.53,1.16,0,1.73Zm1.81,30.14v-.44c-.36-.57-.88-.57-1.58-.42-.69,.58,1.06,1,1.58,.86Zm0,0v-.44c-.36-.57-.88-.57-1.58-.42-.69,.58,1.06,1,1.58,.86Zm-4.18,1.33c1.05,.28,1.92-.45,1.56-1.31,0-.15-.35-.43-.53-.43-.69,.29-1.38,1.02-1.03,1.74Zm0,0c1.05,.28,1.92-.45,1.56-1.31,0-.15-.35-.43-.53-.43-.69,.29-1.38,1.02-1.03,1.74Zm4.18-1.33v-.44c-.36-.57-.88-.57-1.58-.42-.69,.58,1.06,1,1.58,.86Z"/>
      <path class="cls-14" d="M660.89,409.33v.43c-.36,.57-.88,.57-1.58,.42-.69-.58,1.06-1,1.58-.85Z"/>
      <path class="cls-15" d="M658.27,409.31c0,.15-.35,.43-.53,.43-.7-.29-1.39-1.02-1.03-1.74,1.05-.28,1.92,.45,1.56,1.31Z"/>
      <path class="cls-4" d="M692.5,483.54v-9.93l.03-3.01c.75-6.78,1.75-1.43,2.64-2.58,.17-.14,.53-1.15,.53-1.29,4.9-2.13,8.05-3.4,9.49-8.15,1.61-4.75,1.3-9.94,1.33-14.42,.53-.42,1.41-1.43,1.07-2.15h-1.05s.07-8.81,.07-8.81c2.28-2.14,.01-1.44,.03-3.89l.36-45.72h1.04c.54-1.29-1.73-2.17-1.02-3.46,.53-.14,1.22,.29,1.57,.44,.53-1-1.37-3.33-1.54-3.47l.06-8.37h31.46v1.54h.12s-.01,1.88-.01,1.88h-.11v13.42l-.11,14.85-1.59,2.58c-.18,.44,1.56,.45,1.56,.88l-.11,13.99c-1.05,.57-1.93,1.43,0,1.73l-.29,36.49c0,.15-.37,2.31-.55,3.17-.18,.87-.55,3.46-2.12,3.45,.17,.43,.16,2.16-.02,2.6-.2,.77-.43,1.25-.72,1.55-.15,.49-.35,1.07-.62,1.78-2.17,5.7-12.76,10.71-12.76,10.71,0,0-1.45,.74-3.81,1.64-1.38,.7-3.17,1.2-4.71,1.55-1.97,.55-4.17,1.04-6.49,1.34-1.37,.25-2.81,.44-4.06,.44-.12,0-.24,0-.35,0-5.44,.36-9.31,0-9.31,0v-.4c-.04-.11-.04-.24,0-.38Zm43.68-59.62c-.35-.15-1.05,.13-1.05,.42l-.02,1.73h1.05s.02-2.15,.02-2.15Zm-.11,13.99l.03-4.04c-1.91-.88-2.31,5.32-.03,4.04Zm-26.29-8.14c.17-.15,.53-1.15,.53-1.3,.72-2.59-4.53-1.19-.53,1.3Zm-12.52,37.98c.18,0,.18-.29,0-.29-.17,0-.17,.29,0,.29Zm-2.59,2.42s-.03,0-.05,.01l-.03,.12,.08-.13Z"/>
      <path class="cls-16" d="M720.06,441.19c1.04-.44,.51-1.16-.01-1.73v1.73Z"/>
      <path class="cls-4" d="M640.5,449.71l.22-28.27c1.58-.57,1.59-2.44,.03-3.03l.25-32.63,.03-4.44,.07-.22,.2-8.68c.01-1.09,.03-2.14,.09-2.92,.06-.79,.14-1.3,.27-1.3l30.54,.24,.16,.27,.88,1.47-.07,8.36c0,.87-3.16,3.15-2.65,3.88,.18,.43,1.74,1.89,2.08,2.18,0,.14-.35,.43-.52,.43-4.21,2.27,1.03,1.88,1.01,4.33l-.12,15.72c-.71,.86-.71,1.44,.15,2.17l-.39,50.05c-.02,2.59,3.45,5.79,5.53,7.11,1.22,.73,8.01,2.22,8.01,2.66l-.04,5.45-.1,12c0,.46-1.05,.56-2.25,.38v.09c-6.78-.26-12.77-1.43-16.37-2.3-.1-.01-.2-.02-.31-.04-1.11-.15-2.41-.63-3.21-.9-5.23-1.63-9.92-3.97-13.73-7.61-.17-.58,.72-2.73,.55-3.46-.29-1.89-1.8-.82-3.1-1.68-.19-.12-.37-.29-.55-.51,0-.14-.52-.44-.52-.44-4.87-2.05-5.87-7.83-6.19-12.31-.15-2.16,1.26-4.02,.05-6.05Zm8.7-40.9c0,.15,.51,1.16,.51,1.3l-.04,5.34c-.19,2.02-1.59,2.29,1.02,3.9h.52c.18-.42,.54-2.15,.54-2.59,.37-2.3-2.73-7.37-.97-9.24-.7-.43-1.75,.71-1.58,1.29Zm.63,53.23h.52c.18-.14,.53-.71,.53-.86l.02-1.73c-.17-.72-.51-2.31-.51-2.31h-1.05c-.36,2.15,.85,3.03,.49,4.9Zm6.58-15.67c0-.14-.35-.44-.52-.44-.18,.43-.18,1.16,.51,1.31v-.87Zm-3.13-67.53c.18,0,.53-.28,.53-.43,.89-2.01-3.48-1.18-.53,.43Zm.05,60.58c.18-.14,.53-.72,.53-.86,.18-.58-.51-1.01-1.03-1.3-1.58,.41-.19,1.87,.5,2.16Zm-.29-30c.18,0,.18-.29,.01-.29-.18,0-.18,.29-.01,.29Zm-.05,6.49h.53v-1.87c.01-.15-.33-.44-.51-.44l-.02,2.31Zm1.95,19.49c.17-.15,.18-1.16,0-1.3-1.54-3.19-3.85,2.42,0,1.3Zm-.59-59.58c-1.54-3.91-4.9,1.4,0,.43v-.43Zm.85,25.25c-.72,3.17,4.33,5.08,5.22,3.07,.17-.43-.17-.58-.52-.87l-4.17-2.63c-.17,0-.53,.28-.53,.43Zm.16-20.05v.87c.34,.14,.87-.14,1.04-.43-.17-.29-.69-.58-1.04-.44Zm4.23-5.59l-.03,3.89c-.01,1.01,1.57,.3,1.58-.42l.02-3.46c-.17-.29-1.56-.88-1.57-.01Zm-5.52,36.88c.35-.14,2.27-.13,2.62,.02,.34,.15,1.9,1.6,2.08,1.75,.69,.58,1.57-.28,2.09-.42,.36-.1,.65-.21,.89-.33,1.64-.86,.8-2.3,.02-3.64-.7-1.21-1.33-2.34,.03-2.88,.05-.02,.11-.04,.17-.06-.06-.03-.11-.05-.17-.08-4.3-1.88-8.74,2.08-7.73,5.64Zm3.52,18.35c-1.57,.27,.49,4.33,.49,4.76,0,.15,.52,.15,.52,0,0,0,.36-1,.53-1.29,.18-.72,.71-1.73,.55-2.59h-1.57c.17-.3-.17-.74-.52-.88Zm7-24.76v-.86c-.68-1.74-3.15,1.7,0,.86Zm-.26-33.32c.17,0,.17-.29,0-.29s-.18,.29,0,.29Zm-.57,5.48v.43h.52v-.43s-.52,0-.52,0Zm-.45-8.8l-.53,.42h.52s.01-.42,.01-.42Zm6.77,71.16c.35,0,.35-.43,0-.44-.34,0-.35,.43,0,.44Zm-2.39-28.87h-.52v.43s.52-.43,.52-.43Zm-1.8,28.84c.55-2.6-1.88-4.63-2.04-7.09h-.52l-.04,5.33c0,.15-.36,.72-.53,.87h-.53s-.69-.58-.69-.58l-1.91-1.61s-.35,0-.52-.01c-.35,.14-1.41,1-1.58,1.29l-.52-.87c-.19,1.73-.53,.86-1.59,2.15v.43c1.73,1.89,1.9,2.61,4.7,1.77,.11,0,.83-.33,1.4-.58,.34-.15,.64-.27,.7-.27l3.67-.83Zm-3.72,7.32v-.86s-.52-.01-.52-.01c-.17,.29,.17,.73,.52,.87Zm-7.52,23.89c.36-1.01-.51-1.74-1.55-2.18-2.45,.42,.84,3.9,1.55,2.18Zm-9.5-80.27v-.44s-.51,0-.51,0v.43s.51,.01,.51,.01Z"/>
    </g>
  </g>
</svg>